<svg width="66" height="66" viewBox="0 0 66 66" fill="none" xmlns="http://www.w3.org/2000/svg">
<circle cx="33" cy="33" r="33" fill="url(#paint0_linear_1571_11645)"/>
<circle cx="33.0002" cy="33.0002" r="26.8889" fill="#4888FF"/>
<path d="M33.0001 36.361C34.1886 36.361 35.3285 35.8888 36.169 35.0484C37.0094 34.2079 37.4816 33.068 37.4816 31.8795V25.1573C37.4816 23.9687 37.0094 22.8288 36.169 21.9884C35.3285 21.1479 34.1886 20.6758 33.0001 20.6758C31.8115 20.6758 30.6716 21.1479 29.8312 21.9884C28.9907 22.8288 28.5186 23.9687 28.5186 25.1573V31.8795C28.5186 33.068 28.9907 34.2079 29.8312 35.0484C30.6716 35.8888 31.8115 36.361 33.0001 36.361ZM30.7593 25.1573C30.7593 24.563 30.9954 23.993 31.4156 23.5728C31.8359 23.1526 32.4058 22.9165 33.0001 22.9165C33.5944 22.9165 34.1643 23.1526 34.5845 23.5728C35.0047 23.993 35.2408 24.563 35.2408 25.1573V31.8795C35.2408 32.4738 35.0047 33.0437 34.5845 33.4639C34.1643 33.8841 33.5944 34.1202 33.0001 34.1202C32.4058 34.1202 31.8359 33.8841 31.4156 33.4639C30.9954 33.0437 30.7593 32.4738 30.7593 31.8795V25.1573ZM41.963 31.8795C41.963 31.5823 41.845 31.2974 41.6349 31.0873C41.4248 30.8772 41.1398 30.7591 40.8427 30.7591C40.5455 30.7591 40.2606 30.8772 40.0504 31.0873C39.8403 31.2974 39.7223 31.5823 39.7223 31.8795C39.7223 33.6623 39.0141 35.3722 37.7534 36.6328C36.4927 37.8935 34.7829 38.6017 33.0001 38.6017C31.2172 38.6017 29.5074 37.8935 28.2467 36.6328C26.9861 35.3722 26.2779 33.6623 26.2779 31.8795C26.2779 31.5823 26.1598 31.2974 25.9497 31.0873C25.7396 30.8772 25.4546 30.7591 25.1575 30.7591C24.8603 30.7591 24.5754 30.8772 24.3653 31.0873C24.1551 31.2974 24.0371 31.5823 24.0371 31.8795C24.0391 34.0612 24.8367 36.1672 26.2805 37.8028C27.7243 39.4385 29.7151 40.4913 31.8797 40.764V43.0832H29.639C29.3418 43.0832 29.0569 43.2012 28.8467 43.4113C28.6366 43.6214 28.5186 43.9064 28.5186 44.2036C28.5186 44.5007 28.6366 44.7857 28.8467 44.9958C29.0569 45.2059 29.3418 45.3239 29.639 45.3239H36.3612C36.6583 45.3239 36.9433 45.2059 37.1534 44.9958C37.3635 44.7857 37.4816 44.5007 37.4816 44.2036C37.4816 43.9064 37.3635 43.6214 37.1534 43.4113C36.9433 43.2012 36.6583 43.0832 36.3612 43.0832H34.1204V40.764C36.285 40.4913 38.2758 39.4385 39.7196 37.8028C41.1634 36.1672 41.9611 34.0612 41.963 31.8795V31.8795Z" fill="white"/>
<defs>
<linearGradient id="paint0_linear_1571_11645" x1="33" y1="0" x2="33" y2="66" gradientUnits="userSpaceOnUse">
<stop stop-color="#4888FF"/>
<stop offset="1" stop-color="#4888FF" stop-opacity="0.1"/>
</linearGradient>
</defs>
</svg>
