<svg width="20" height="20" viewBox="0 0 20 20" fill="none" xmlns="http://www.w3.org/2000/svg">
<circle cx="10" cy="10" r="9.5" stroke="#4888FF"/>
<path d="M8.23737 14.1C8.41612 14.1003 8.5931 14.0645 8.75815 13.9945C8.92325 13.9246 9.07308 13.822 9.19909 13.6928L15.0716 7.67769L15.1398 7.60784L15.0716 7.53798L14.4781 6.93014L14.4066 6.85685L14.335 6.93014L8.46253 12.9453C8.46253 12.9453 8.46253 12.9453 8.46252 12.9453C8.40238 13.0069 8.32134 13.041 8.23737 13.041C8.15339 13.041 8.07235 13.0069 8.01221 12.9453C8.01221 12.9453 8.01221 12.9453 8.0122 12.9453L5.66497 10.541L5.59339 10.4677L5.52184 10.5411L4.92842 11.1493L4.86026 11.2192L4.92845 11.289L7.27564 13.6928C7.27566 13.6928 7.27567 13.6928 7.27568 13.6929C7.40168 13.8221 7.5515 13.9246 7.71658 13.9945C7.88163 14.0645 8.05862 14.1003 8.23737 14.1ZM8.23737 14.1C8.23731 14.1 8.23724 14.1 8.23718 14.1L8.23737 14L8.23756 14.1C8.23749 14.1 8.23743 14.1 8.23737 14.1Z" fill="#4888FF" stroke="#4888FF" stroke-width="0.2"/>
</svg>
