<svg width="27" height="24" viewBox="0 0 27 24" fill="none" xmlns="http://www.w3.org/2000/svg">
<path d="M7.08123 1.32976C7.0745 1.29682 7.02742 1.29682 7.02069 1.32976C6.67116 3.03984 5.33475 4.37625 3.62468 4.72577C3.59173 4.73251 3.59173 4.77958 3.62468 4.78632C5.33475 5.13584 6.67116 6.47225 7.02069 8.18233C7.02742 8.21528 7.0745 8.21528 7.08123 8.18233C7.43076 6.47225 8.76717 5.13584 10.4772 4.78632C10.5102 4.77958 10.5102 4.73251 10.4772 4.72577C8.76717 4.37625 7.43076 3.03984 7.08123 1.32976Z" stroke="#4888FF" stroke-width="2.04251"/>
<path d="M1.66459 5.20786C1.72849 4.89523 2.17517 4.89523 2.23907 5.20786C2.3802 5.89832 2.91979 6.43792 3.61026 6.57904C3.92288 6.64294 3.92288 7.08962 3.61026 7.15352C2.91979 7.29465 2.3802 7.83424 2.23907 8.52471C2.17517 8.83733 1.72849 8.83733 1.66459 8.52471C1.52347 7.83424 0.983874 7.29465 0.293407 7.15352C-0.0192182 7.08962 -0.0192182 6.64294 0.293407 6.57904C0.983874 6.43792 1.52347 5.89832 1.66459 5.20786Z" fill="#4888FF"/>
<path d="M14.506 3.31707C13.8907 3.31707 13.3919 2.81827 13.3919 2.20297C13.3919 1.58767 13.8907 1.08888 14.506 1.08888V3.31707ZM23.0859 14.6974L24.1255 15.0979H24.1255L23.0859 14.6974ZM23.1562 19.0695L24.253 18.8736L23.1562 19.0695ZM22.7873 17.0036L23.884 16.8078H23.884L22.7873 17.0036ZM21.909 20.3253L22.0973 19.2273H22.0973L21.909 20.3253ZM19.4668 19.9067L19.2785 21.0048L19.2785 21.0048L19.4668 19.9067ZM17.3903 20.1239L17.041 19.066L17.041 19.066L17.3903 20.1239ZM18.749 19.8072L18.7748 18.6934H18.7748L18.749 19.8072ZM18.3281 19.8386L18.1371 18.741H18.1371L18.3281 19.8386ZM22.7179 15.7326L23.8088 15.9587H23.8088L22.7179 15.7326ZM22.6731 16.2005L23.7871 16.1855L22.6731 16.2005ZM4.75212 8.06035C4.95108 7.47811 5.58438 7.16741 6.16662 7.36637C6.74886 7.56534 7.05957 8.19863 6.8606 8.78087L4.75212 8.06035ZM16.4859 12.9921C17.0135 12.6755 17.6979 12.8466 18.0144 13.3742C18.331 13.9018 18.1599 14.5862 17.6323 14.9027L16.4859 12.9921ZM11.3796 14.9027C10.852 14.5862 10.6809 13.9018 10.9975 13.3742C11.3141 12.8466 11.9984 12.6755 12.526 12.9921L11.3796 14.9027ZM6.42877 11.3943C6.42877 15.8552 10.0451 19.4715 14.506 19.4715V21.6997C8.81446 21.6997 4.20058 17.0858 4.20058 11.3943H6.42877ZM22.5832 11.3943C22.5832 6.93335 18.9669 3.31707 14.506 3.31707V1.08888C20.1975 1.08888 24.8114 5.70276 24.8114 11.3943H22.5832ZM22.0463 14.2969C22.3927 13.3976 22.5832 12.4195 22.5832 11.3943H24.8114C24.8114 12.6977 24.5689 13.947 24.1255 15.0979L22.0463 14.2969ZM22.0595 19.2653L21.6906 17.1995L23.884 16.8078L24.253 18.8736L22.0595 19.2653ZM22.0973 19.2273C22.0983 19.2275 22.0964 19.227 22.0922 19.2274C22.0882 19.2277 22.0841 19.2285 22.0804 19.2298C22.0732 19.2322 22.0698 19.2351 22.0685 19.2365C22.0671 19.2378 22.0642 19.2413 22.0619 19.2484C22.0606 19.2522 22.0598 19.2563 22.0595 19.2603C22.0592 19.2644 22.0596 19.2664 22.0595 19.2653L24.253 18.8736C24.5204 20.3714 23.2203 21.6805 21.7208 21.4234L22.0973 19.2273ZM19.655 18.8086L22.0973 19.2273L21.7208 21.4234L19.2785 21.0048L19.655 18.8086ZM14.506 19.4715C15.3933 19.4715 16.2451 19.3288 17.041 19.066L17.7397 21.1818C16.7212 21.5181 15.6337 21.6997 14.506 21.6997V19.4715ZM19.2785 21.0048C18.8664 20.9341 18.7795 20.9223 18.7232 20.921L18.7748 18.6934C19.0361 18.6994 19.322 18.7515 19.655 18.8086L19.2785 21.0048ZM17.041 19.066C17.5071 18.912 17.8765 18.7864 18.1371 18.741L18.5192 20.9362C18.5237 20.9354 18.5124 20.9372 18.4765 20.9468C18.4414 20.9562 18.3932 20.9702 18.3256 20.9912C18.188 21.0338 18.0043 21.0944 17.7397 21.1818L17.041 19.066ZM18.7232 20.921C18.6485 20.9192 18.6286 20.9205 18.6206 20.9211C18.6127 20.9217 18.5928 20.9234 18.5191 20.9362L18.1371 18.741C18.3814 18.6985 18.5269 18.6876 18.7748 18.6934L18.7232 20.921ZM24.1255 15.0979C24.013 15.3898 23.935 15.5926 23.88 15.7446C23.8529 15.8193 23.8348 15.8727 23.8226 15.9116C23.8101 15.9515 23.8077 15.964 23.8088 15.9587L21.627 15.5064C21.6869 15.2178 21.8481 14.8112 22.0463 14.2969L24.1255 15.0979ZM21.6906 17.1995C21.6239 16.8265 21.563 16.5067 21.5591 16.2154L23.7871 16.1855C23.7879 16.2482 23.8016 16.3459 23.884 16.8078L21.6906 17.1995ZM23.8088 15.9587C23.7919 16.0406 23.7895 16.0626 23.7887 16.0712C23.7878 16.0799 23.786 16.1019 23.7871 16.1855L21.5591 16.2154C21.5554 15.9387 21.5709 15.7774 21.627 15.5064L23.8088 15.9587ZM6.8606 8.78087C6.58098 9.59914 6.42877 10.4778 6.42877 11.3943H4.20058C4.20058 10.2294 4.39428 9.1075 4.75212 8.06035L6.8606 8.78087ZM17.6323 14.9027C15.708 16.0573 13.304 16.0573 11.3796 14.9027L12.526 12.9921C13.7447 13.7233 15.2672 13.7233 16.4859 12.9921L17.6323 14.9027Z" fill="#4888FF"/>
</svg>
