<svg width="27" height="20" viewBox="0 0 27 20" fill="none" xmlns="http://www.w3.org/2000/svg">
<path d="M8.4525 6.52873C6.5025 8.47873 6.5025 11.6487 8.4525 13.5987C8.8425 13.9887 9.4725 13.9887 9.8625 13.5987C10.2525 13.2087 10.2525 12.5787 9.8625 12.1887C8.6925 11.0187 8.6925 9.11873 9.8625 7.94873L14.7625 3.04873C15.9325 1.87873 17.8325 1.87873 19.0025 3.04873L23.9025 7.94873C25.0725 9.11873 25.0725 11.0187 23.9025 12.1887L19.0025 17.0887C17.8625 18.2287 16.0325 18.2487 14.8625 17.1687L18.4225 13.6087C19.3925 12.6387 19.8825 11.3587 19.8825 10.0687C19.8825 8.77873 19.3925 7.50873 18.4225 6.52873L16.3825 4.48873C15.9925 4.09873 15.3625 4.09873 14.9725 4.48873C14.5825 4.87873 14.5825 5.50873 14.9725 5.89873L17.0125 7.93873C18.1825 9.10873 18.1825 11.0087 17.0125 12.1787L12.0625 17.1287C10.8925 18.2987 8.9925 18.2987 7.8225 17.1287L2.8725 12.1787C1.7025 11.0087 1.7025 9.10873 2.8725 7.93873L7.8225 2.98873C8.5025 2.30873 9.4725 1.99873 10.4325 2.14873C10.9725 2.23873 11.4925 1.86873 11.5825 1.31873C11.6725 0.778727 11.3025 0.258727 10.7525 0.168727C9.1725 -0.0912725 7.5425 0.438727 6.4125 1.56873L1.4625 6.51873C-0.4875 8.46873 -0.4875 11.6387 1.4625 13.5887L6.4125 18.5387C8.3525 20.4787 11.5025 20.4887 13.4525 18.5587C15.4125 20.4187 18.5125 20.3987 20.4325 18.4787L25.3325 13.5787C26.3125 12.6087 26.7925 11.3187 26.7925 10.0387C26.7925 8.75873 26.3025 7.47873 25.3325 6.49873L20.4325 1.59873C18.4825 -0.351273 15.3125 -0.351273 13.3625 1.59873L8.4625 6.49873L8.4525 6.52873Z" fill="#2600FF"/>
</svg>
