<svg width="20" height="20" viewBox="0 0 20 20" fill="none" xmlns="http://www.w3.org/2000/svg">
<g clip-path="url(#clip0_1278_13467)">
<path d="M11.6667 5.83352C11.6667 6.16316 11.569 6.48539 11.3858 6.75947C11.2027 7.03356 10.9424 7.24718 10.6378 7.37332C10.3333 7.49947 9.99819 7.53247 9.67488 7.46816C9.35158 7.40386 9.05461 7.24512 8.82152 7.01203C8.58844 6.77895 8.4297 6.48197 8.36539 6.15867C8.30108 5.83537 8.33409 5.50026 8.46023 5.19572C8.58638 4.89117 8.8 4.63088 9.07408 4.44774C9.34817 4.2646 9.6704 4.16686 10 4.16686C10.4421 4.16686 10.866 4.34245 11.1785 4.65501C11.4911 4.96757 11.6667 5.39149 11.6667 5.83352ZM14.125 9.96436L10 14.0002L5.8817 9.97019C5.06435 9.1554 4.50706 8.11646 4.28035 6.98485C4.05364 5.85323 4.1677 4.6798 4.60809 3.61303C5.04847 2.54625 5.7954 1.63409 6.75436 0.991945C7.71332 0.349805 8.84121 0.0065505 9.99531 0.00561714C11.1494 0.00468378 12.2779 0.346113 13.2378 0.986702C14.1978 1.62729 14.9463 2.53825 15.3884 3.60431C15.8305 4.67037 15.9464 5.84362 15.7216 6.97559C15.4967 8.10757 14.9411 9.14741 14.125 9.96352V9.96436ZM13.3334 5.83352C13.3334 5.17425 13.1379 4.52979 12.7716 3.98162C12.4053 3.43346 11.8847 3.00622 11.2756 2.75392C10.6666 2.50163 9.99634 2.43562 9.34973 2.56424C8.70313 2.69286 8.10919 3.01032 7.64301 3.4765C7.17684 3.94267 6.85937 4.53662 6.73075 5.18322C6.60213 5.82982 6.66814 6.50005 6.92043 7.10913C7.17273 7.71822 7.59997 8.23882 8.14813 8.60509C8.6963 8.97136 9.34076 9.16686 10 9.16686C10.8841 9.16686 11.7319 8.81567 12.3571 8.19055C12.9822 7.56542 13.3334 6.71758 13.3334 5.83352ZM18.2225 8.84436L17.0267 8.44436C16.6545 9.45827 16.0665 10.3792 15.3034 11.1435L10 16.3335L4.7167 11.1669C3.71378 10.1677 3.01455 8.9047 2.70003 7.52436C2.35648 7.49273 2.01012 7.53334 1.68319 7.64355C1.35627 7.75377 1.05602 7.93116 0.801735 8.16433C0.547454 8.3975 0.344766 8.68129 0.206697 8.99746C0.0686285 9.31363 -0.00176729 9.65519 3.37039e-05 10.0002V18.1269L6.65253 20.0277L13.3359 18.361L20.0025 19.9844V11.236C20.0022 10.6989 19.8289 10.1762 19.5083 9.74532C19.1877 9.31441 18.7369 8.9982 18.2225 8.84352V8.84436Z" fill="#8E8E8E"/>
</g>
<defs>
<clipPath id="clip0_1278_13467">
<rect width="20" height="20" fill="white"/>
</clipPath>
</defs>
</svg>
