<svg width="24" height="24" viewBox="0 0 24 24" fill="none" xmlns="http://www.w3.org/2000/svg">
<path fill-rule="evenodd" clip-rule="evenodd" d="M12 22.8C17.9647 22.8 22.8 17.9647 22.8 12C22.8 6.03532 17.9647 1.2 12 1.2C6.03532 1.2 1.2 6.03532 1.2 12C1.2 17.9647 6.03532 22.8 12 22.8ZM12 24C18.6274 24 24 18.6274 24 12C24 5.37258 18.6274 0 12 0C5.37258 0 0 5.37258 0 12C0 18.6274 5.37258 24 12 24Z" fill="#BEBFC0"/>
<path d="M16.0348 7.00082L7 16.0356L7.96486 17.0005L16.9997 7.96569L16.0348 7.00082Z" fill="#FF4E4E"/>
<path d="M7.96486 6.99998L7 7.96484L16.0348 16.9997L16.9997 16.0348L7.96486 6.99998Z" fill="#FF4E4E"/>
</svg>
