<svg width="22" height="22" viewBox="0 0 22 22" fill="none" xmlns="http://www.w3.org/2000/svg">
<path fill-rule="evenodd" clip-rule="evenodd" d="M20.7929 9.88159C20.1192 12.6423 17.8665 14.7485 15.0753 15.2403C13.8357 15.4583 12.55 15.348 11.3525 14.9081L6.17197 20.0899C5.16302 21.0982 3.95384 21.1862 2.94661 20.7544C2.20039 20.4337 1.57115 19.8046 1.24828 19.0595C0.814223 18.0537 0.899069 16.8423 1.90636 15.8341L7.08862 10.6505C6.13486 8.05001 6.75257 5.10254 8.75071 3.10331C9.71353 2.14028 10.8847 1.50786 12.1201 1.20604C13.3942 0.894345 14.7376 0.936304 15.9902 1.33187C16.9555 1.63615 17.2874 2.86975 16.5486 3.60816L13.4057 6.75059L13.6652 8.33452L15.2465 8.59276L18.3855 5.45538C19.1226 4.71852 20.3597 5.03678 20.6685 6.01296C21.0639 7.26465 21.1059 8.60681 20.7929 9.88159Z" fill="black" stroke="white" stroke-width="1.5"/>
<path d="M5 18C5 18.5523 4.55228 19 4 19C3.44772 19 3 18.5523 3 18C3 17.4477 3.44772 17 4 17C4.55228 17 5 17.4477 5 18Z" fill="white"/>
</svg>
