<svg width="22" height="22" viewBox="0 0 22 22" fill="none" xmlns="http://www.w3.org/2000/svg">
<path fill-rule="evenodd" clip-rule="evenodd" d="M13.9261 12.7594C13.2384 13.447 12.3058 13.8333 11.3333 13.8333C10.3609 13.8333 9.42824 13.447 8.74061 12.7594C8.05297 12.0718 7.66667 11.1391 7.66667 10.1667V4.66667C7.66667 3.69421 8.05297 2.76158 8.74061 2.07394C9.42824 1.38631 10.3609 1 11.3333 1C12.3058 1 13.2384 1.38631 13.9261 2.07394C14.6137 2.76158 15 3.69421 15 4.66667V10.1667C15 11.1391 14.6137 12.0718 13.9261 12.7594ZM18.3982 9.51849C18.5701 9.69039 18.6667 9.92355 18.6667 10.1667C18.665 11.9517 18.0124 13.6748 16.8311 15.0131C15.6498 16.3513 14.021 17.2127 12.25 17.4358V19.3333H14.0833C14.3264 19.3333 14.5596 19.4299 14.7315 19.6018C14.9034 19.7737 15 20.0069 15 20.25C15 20.4931 14.9034 20.7263 14.7315 20.8982C14.5596 21.0701 14.3264 21.1667 14.0833 21.1667H8.58333C8.34022 21.1667 8.10706 21.0701 7.93515 20.8982C7.76324 20.7263 7.66667 20.4931 7.66667 20.25C7.66667 20.0069 7.76324 19.7737 7.93515 19.6018C8.10706 19.4299 8.34022 19.3333 8.58333 19.3333H10.4167V17.4358C8.64565 17.2127 7.01682 16.3513 5.83553 15.0131C4.65424 13.6748 4.00162 11.9517 4 10.1667C4 9.92355 4.09658 9.69039 4.26849 9.51849C4.44039 9.34658 4.67355 9.25 4.91667 9.25C5.15978 9.25 5.39294 9.34658 5.56485 9.51849C5.73676 9.69039 5.83333 9.92355 5.83333 10.1667C5.83333 11.6254 6.4128 13.0243 7.44425 14.0558C8.4757 15.0872 9.87464 15.6667 11.3333 15.6667C12.792 15.6667 14.191 15.0872 15.2224 14.0558C16.2539 13.0243 16.8333 11.6254 16.8333 10.1667C16.8333 9.92355 16.9299 9.69039 17.1018 9.51849C17.2737 9.34658 17.5069 9.25 17.75 9.25C17.9931 9.25 18.2263 9.34658 18.3982 9.51849Z" fill="#8E8E8E"/>
</svg>
