<svg width="25" height="26" viewBox="0 0 25 26" fill="none" xmlns="http://www.w3.org/2000/svg">
<g clip-path="url(#clip0_1337_1589)">
<path d="M14.8333 5.16667C14.8333 4.94444 14.7639 4.76389 14.625 4.625C14.4861 4.48611 14.3056 4.41667 14.0833 4.41667H6.25C6.02778 4.41667 5.84722 4.48611 5.70833 4.625C5.56944 4.76389 5.5 4.94444 5.5 5.16667V11.4167C5.5 11.6389 5.56944 11.8333 5.70833 12C5.84722 12.1667 6.02778 12.25 6.25 12.25H14.0833C14.3056 12.25 14.4861 12.1667 14.625 12C14.7639 11.8333 14.8333 11.6389 14.8333 11.4167V5.16667ZM13.25 10.6667H7V6H13.25V10.6667ZM23.8333 6L20.6667 4.5C20.5 4.38889 20.3056 4.36111 20.0833 4.41667C19.8611 4.47222 19.7083 4.59722 19.625 4.79167C19.5417 4.98611 19.5278 5.19444 19.5833 5.41667C19.6389 5.63889 19.7778 5.77778 20 5.83333L21.1667 6.5L21.0833 6.75C21.0833 7.25 21.2361 7.69444 21.5417 8.08333C21.8472 8.47222 22.2222 8.75 22.6667 8.91667V18.4167C22.6667 18.6389 22.5833 18.8333 22.4167 19C22.25 19.1667 22.0694 19.25 21.875 19.25C21.6806 19.25 21.5 19.1667 21.3333 19C21.1667 18.8333 21.0833 18.6389 21.0833 18.4167V12.1667C21.0833 11.2778 20.7639 10.4722 20.125 9.75C19.4861 9.02778 18.7778 8.58333 18 8.41667V3.58333C18 2.75 17.6944 2.02778 17.0833 1.41667C16.4722 0.805555 15.75 0.5 14.9167 0.5H5.5C4.66667 0.5 3.93056 0.805555 3.29167 1.41667C2.65278 2.02778 2.33333 2.75 2.33333 3.58333V21.0833L1.25 21.6667C0.916667 21.8333 0.75 22.0556 0.75 22.3333V24.6667C0.75 24.8889 0.833333 25.0833 1 25.25C1.16667 25.4167 1.36111 25.5 1.58333 25.5H18.75C18.9722 25.5 19.1528 25.4167 19.2917 25.25C19.4306 25.0833 19.5 24.8889 19.5 24.6667V22.3333C19.5 22.0556 19.3611 21.8333 19.0833 21.6667L18 21.0833V10C18.3889 10.1667 18.7361 10.4583 19.0417 10.875C19.3472 11.2917 19.5 11.7222 19.5 12.1667V18.4167C19.5 19.0833 19.7361 19.6528 20.2083 20.125C20.6806 20.5972 21.2361 20.8333 21.875 20.8333C22.5139 20.8333 23.0694 20.5972 23.5417 20.125C24.0139 19.6528 24.25 19.0833 24.25 18.4167V6.75C24.25 6.41667 24.1111 6.16667 23.8333 6ZM18 23.9167H2.33333V22.8333L3.5 22.25C3.77778 22.1389 3.91667 21.9167 3.91667 21.5833V3.58333C3.91667 3.19444 4.06944 2.84722 4.375 2.54167C4.68056 2.23611 5.05556 2.08333 5.5 2.08333H14.9167C15.3056 2.08333 15.6528 2.23611 15.9583 2.54167C16.2639 2.84722 16.4167 3.19444 16.4167 3.58333V21.5833C16.4167 21.9167 16.5556 22.1389 16.8333 22.25L18 22.8333V23.9167Z" fill="#19181D"/>
</g>
<defs>
<clipPath id="clip0_1337_1589">
<rect width="25" height="25" fill="white" transform="matrix(1 0 0 -1 0 25.5)"/>
</clipPath>
</defs>
</svg>
