<svg width="18" height="18" viewBox="0 0 18 18" fill="none" xmlns="http://www.w3.org/2000/svg">
<g clip-path="url(#clip0_638_3697)">
<path d="M9.62624 0.0208526C8.34041 -0.0691166 7.05025 0.118162 5.84307 0.570016C4.63589 1.02187 3.53986 1.72776 2.62912 2.63991C1.71839 3.55206 1.01422 4.6492 0.564248 5.85708C0.114279 7.06497 -0.0709862 8.35541 0.0209893 9.6411C0.351739 14.4059 4.56074 17.9999 9.81149 17.9999H14.2492C15.2434 17.9987 16.1966 17.6032 16.8996 16.9002C17.6026 16.1972 17.9981 15.2441 17.9992 14.2499V9.25485C18.0272 6.94294 17.1796 4.70602 15.6265 2.99323C14.0734 1.28044 11.9299 0.218581 9.62624 0.0208526V0.0208526ZM14.0242 7.28385L8.92949 12.3141C8.64835 12.5942 8.26769 12.7514 7.87086 12.7514C7.47404 12.7514 7.09338 12.5942 6.81224 12.3141L3.97424 9.5361C3.83202 9.39687 3.75093 9.20683 3.74882 9.00781C3.74671 8.80879 3.82375 8.61708 3.96299 8.47485C4.10223 8.33263 4.29226 8.25155 4.49128 8.24944C4.69031 8.24733 4.88202 8.32437 5.02424 8.4636L7.86899 11.2439L12.9735 6.21885C13.1174 6.0922 13.3044 6.02548 13.496 6.03241C13.6876 6.03934 13.8693 6.11939 14.0037 6.25612C14.1382 6.39284 14.2151 6.57585 14.2188 6.76755C14.2225 6.95925 14.1526 7.14508 14.0235 7.28685L14.0242 7.28385Z" fill="#4888FF"/>
</g>
<defs>
<clipPath id="clip0_638_3697">
<rect width="18" height="18" fill="white"/>
</clipPath>
</defs>
</svg>
