<svg width="26" height="22" viewBox="0 0 26 22" fill="none" xmlns="http://www.w3.org/2000/svg">
<path d="M26 13.0274C26 15.9741 25.1333 18.603 23.4 20.9141C23.2267 21.1452 22.9956 21.2752 22.7067 21.3041C22.4178 21.333 22.1578 21.2608 21.9267 21.0874C21.6956 20.9141 21.5656 20.6974 21.5367 20.4374C21.5078 20.1774 21.58 19.9319 21.7533 19.7008C23.2556 17.7363 24.0067 15.5119 24.0067 13.0274C24.0067 11.063 23.5156 9.243 22.5333 7.56745C21.5511 5.89189 20.2078 4.563 18.5033 3.58078C16.7989 2.59856 14.9644 2.10745 13 2.10745C11.0356 2.10745 9.20111 2.59856 7.49667 3.58078C5.79222 4.563 4.44889 5.89189 3.46667 7.56745C2.48444 9.243 1.99333 11.063 1.99333 13.0274C1.99333 15.5119 2.74444 17.7363 4.24667 19.7008C4.42 19.9319 4.49222 20.1774 4.46333 20.4374C4.43444 20.6974 4.30444 20.9141 4.07333 21.0874C3.84222 21.2608 3.58222 21.333 3.29333 21.3041C3.00444 21.2752 2.77333 21.1452 2.6 20.9141C0.866667 18.603 0 15.9741 0 13.0274C0 10.7163 0.577778 8.56411 1.73333 6.57078C2.88889 4.57745 4.46333 3.003 6.45667 1.84745C8.45 0.691891 10.6311 0.114113 13 0.114113C15.3689 0.114113 17.55 0.691891 19.5433 1.84745C21.5367 3.003 23.1111 4.57745 24.2667 6.57078C25.4222 8.56411 26 10.7163 26 13.0274ZM19.4133 6.96078C19.6444 7.13411 19.76 7.36522 19.76 7.65411C19.76 7.943 19.6444 8.17411 19.4133 8.34745L16.12 11.7274C16.4089 12.2474 16.5533 12.7963 16.5533 13.3741C16.5533 14.3563 16.2067 15.1941 15.5133 15.8874C14.82 16.5808 13.9822 16.9274 13 16.9274C12.0178 16.9274 11.18 16.5808 10.4867 15.8874C9.79333 15.1941 9.44667 14.3563 9.44667 13.3741C9.44667 12.3919 9.79333 11.5541 10.4867 10.8608C11.18 10.1674 12.0178 9.82078 13 9.82078C13.5778 9.82078 14.1267 9.96522 14.6467 10.2541L18.0267 6.96078C18.2 6.72967 18.4311 6.61411 18.72 6.61411C19.0089 6.61411 19.24 6.72967 19.4133 6.96078ZM14.56 13.3741C14.56 12.9697 14.4011 12.623 14.0833 12.3341C13.7656 12.0452 13.4044 11.9008 13 11.9008C12.5956 11.9008 12.2344 12.0452 11.9167 12.3341C11.5989 12.623 11.44 12.9697 11.44 13.3741C11.44 13.7786 11.5989 14.1397 11.9167 14.4574C12.2344 14.7752 12.5956 14.9341 13 14.9341C13.4044 14.9341 13.7656 14.7752 14.0833 14.4574C14.4011 14.1397 14.56 13.7786 14.56 13.3741Z" fill="#19181D"/>
</svg>
