<svg width="19" height="21" viewBox="0 0 19 21" fill="none" xmlns="http://www.w3.org/2000/svg">
<path d="M10.2064 8.21986V8.31986H10.1064H5.05319H4.95319V8.21986V4.44681V4.34681H5.05319H10.1064H10.2064V4.44681V8.21986ZM16.06 3.32442L16.0534 3.32129L16.0474 3.31725C15.9395 3.24536 15.8121 3.22452 15.6555 3.26368C15.5032 3.30175 15.4065 3.38341 15.3526 3.50925C15.2945 3.64468 15.2839 3.79059 15.324 3.95093C15.3428 4.02614 15.3742 4.08211 15.4156 4.12344C15.4569 4.16477 15.5129 4.19624 15.5881 4.21504L15.6015 4.21839L15.6134 4.22523L16.5567 4.76424L16.6279 4.80491L16.602 4.88269L16.5398 5.06922C16.543 5.44475 16.6591 5.77699 16.8889 6.06943C17.1251 6.37008 17.4135 6.58329 17.755 6.71133L17.8199 6.73567V6.80497V14.4858C17.8199 14.6937 17.7407 14.8759 17.5884 15.0282C17.4392 15.1774 17.269 15.2596 17.0798 15.2596C16.8906 15.2596 16.7204 15.1774 16.5711 15.0282C16.4189 14.8759 16.3397 14.6937 16.3397 14.4858V9.43263C16.3397 8.74051 16.0919 8.1123 15.59 7.54498C15.0845 6.97358 14.5297 6.62788 13.9259 6.49849L13.8468 6.48155V6.40071V2.49291C13.8468 1.84675 13.6111 1.28796 13.135 0.811848C12.6588 0.335733 12.1001 0.1 11.4539 0.1H3.84043C3.1941 0.1 2.62327 0.335917 2.12409 0.8134C1.62592 1.28991 1.38014 1.84825 1.38014 2.49291V16.6418V16.7016L1.32755 16.7299L0.451665 17.2015L0.451687 17.2016L0.448977 17.2029C0.199845 17.3275 0.1 17.4788 0.1 17.6525V19.539C0.1 19.6904 0.155578 19.8227 0.272838 19.9399C0.390099 20.0572 0.522345 20.1128 0.673759 20.1128H14.5532C14.704 20.1128 14.8215 20.0579 14.9143 19.9466C15.0112 19.8303 15.0596 19.6959 15.0596 19.539V17.6525C15.0596 17.47 14.9722 17.3204 14.7732 17.2004L13.8994 16.7299L13.8468 16.7016V16.6418V7.68085V7.5292L13.9862 7.58894C14.3203 7.73214 14.6144 7.98105 14.8696 8.32916C15.1272 8.68031 15.2596 9.0487 15.2596 9.43263V14.4858C15.2596 14.9983 15.4399 15.4332 15.803 15.7963C16.167 16.1603 16.5911 16.3397 17.0798 16.3397C17.5685 16.3397 17.9926 16.1603 18.3566 15.7963C18.7197 15.4332 18.9 14.9983 18.9 14.4858V5.05319C18.9 4.81923 18.8064 4.65099 18.6157 4.53502L16.06 3.32442ZM14.0468 18.9326V19.0326H13.9468H1.28014H1.18014V18.9326V18.0567V17.9949L1.23542 17.9673L2.17868 17.4957L2.17853 17.4954L2.18626 17.4923C2.28175 17.4541 2.34792 17.3993 2.39126 17.33C2.43511 17.2598 2.46028 17.1672 2.46028 17.0461V2.49291C2.46028 2.1489 2.59663 1.84352 2.86014 1.58C3.12653 1.31361 3.45541 1.18014 3.84043 1.18014H11.4539C11.7979 1.18014 12.1033 1.31648 12.3668 1.58C12.6303 1.84352 12.7667 2.1489 12.7667 2.49291V17.0461C12.7667 17.1672 12.7918 17.2598 12.8357 17.33C12.879 17.3993 12.9452 17.4541 13.0407 17.4923L13.0408 17.4919L13.0483 17.4957L13.9915 17.9673L14.0468 17.9949V18.0567V18.9326ZM11.2865 3.77305C11.2865 3.61611 11.2384 3.49683 11.1474 3.40582C11.0564 3.3148 10.9371 3.26667 10.7801 3.26667H4.44681C4.28986 3.26667 4.17059 3.3148 4.07958 3.40582C3.98856 3.49683 3.94043 3.61611 3.94043 3.77305V8.82624C3.94043 8.98314 3.98876 9.11755 4.08569 9.23386C4.17845 9.34518 4.29598 9.4 4.44681 9.4H10.7801C10.931 9.4 11.0485 9.34518 11.1413 9.23386C11.2382 9.11755 11.2865 8.98314 11.2865 8.82624V3.77305Z" fill="white" stroke="white" stroke-width="0.2"/>
</svg>
