<svg width="76" height="76" viewBox="0 0 76 76" fill="none" xmlns="http://www.w3.org/2000/svg">
<g filter="url(#filter0_d_649_5467)">
<circle cx="38" cy="38" r="22" fill="#19181D"/>
</g>
<path d="M39.2064 36.2199V36.3199H39.1064H34.0532H33.9532V36.2199V32.4468V32.3468H34.0532H39.1064H39.2064V32.4468V36.2199ZM45.06 31.3244L45.0534 31.3213L45.0474 31.3172C44.9395 31.2454 44.8121 31.2245 44.6555 31.2637C44.5032 31.3017 44.4065 31.3834 44.3526 31.5093C44.2945 31.6447 44.2839 31.7906 44.324 31.9509C44.3428 32.0261 44.3742 32.0821 44.4156 32.1234C44.4569 32.1648 44.5129 32.1962 44.5881 32.215L44.6015 32.2184L44.6134 32.2252L45.5567 32.7642L45.6279 32.8049L45.602 32.8827L45.5398 33.0692C45.543 33.4447 45.6591 33.777 45.8889 34.0694C46.1251 34.3701 46.4135 34.5833 46.755 34.7113L46.8199 34.7357V34.805V42.4858C46.8199 42.6937 46.7407 42.8759 46.5884 43.0282C46.4392 43.1774 46.269 43.2596 46.0798 43.2596C45.8906 43.2596 45.7204 43.1774 45.5711 43.0282C45.4189 42.8759 45.3397 42.6937 45.3397 42.4858V37.4326C45.3397 36.7405 45.0919 36.1123 44.59 35.545C44.0845 34.9736 43.5297 34.6279 42.9259 34.4985L42.8468 34.4816V34.4007V30.4929C42.8468 29.8468 42.6111 29.288 42.135 28.8118C41.6588 28.3357 41.1001 28.1 40.4539 28.1H32.8404C32.1941 28.1 31.6233 28.3359 31.1241 28.8134C30.6259 29.2899 30.3801 29.8482 30.3801 30.4929V44.6418V44.7016L30.3276 44.7299L29.4517 45.2015L29.4517 45.2016L29.449 45.2029C29.1998 45.3275 29.1 45.4788 29.1 45.6525V47.539C29.1 47.6904 29.1556 47.8227 29.2728 47.9399C29.3901 48.0572 29.5223 48.1128 29.6738 48.1128H43.5532C43.704 48.1128 43.8215 48.0579 43.9143 47.9466C44.0112 47.8303 44.0596 47.6959 44.0596 47.539V45.6525C44.0596 45.47 43.9722 45.3204 43.7732 45.2004L42.8994 44.7299L42.8468 44.7016V44.6418V35.6809V35.5292L42.9862 35.5889C43.3203 35.7321 43.6144 35.981 43.8696 36.3292C44.1272 36.6803 44.2596 37.0487 44.2596 37.4326V42.4858C44.2596 42.9983 44.4399 43.4332 44.803 43.7963C45.167 44.1603 45.5911 44.3397 46.0798 44.3397C46.5685 44.3397 46.9926 44.1603 47.3566 43.7963C47.7197 43.4332 47.9 42.9983 47.9 42.4858V33.0532C47.9 32.8192 47.8064 32.651 47.6157 32.535L45.06 31.3244ZM43.0468 46.9326V47.0326H42.9468H30.2801H30.1801V46.9326V46.0567V45.9949L30.2354 45.9673L31.1787 45.4957L31.1785 45.4954L31.1863 45.4923C31.2818 45.4541 31.3479 45.3993 31.3913 45.33C31.4351 45.2598 31.4603 45.1672 31.4603 45.0461V30.4929C31.4603 30.1489 31.5966 29.8435 31.8601 29.58C32.1265 29.3136 32.4554 29.1801 32.8404 29.1801H40.4539C40.7979 29.1801 41.1033 29.3165 41.3668 29.58C41.6303 29.8435 41.7667 30.1489 41.7667 30.4929V45.0461C41.7667 45.1672 41.7918 45.2598 41.8357 45.33C41.879 45.3993 41.9452 45.4541 42.0407 45.4923L42.0408 45.4919L42.0483 45.4957L42.9915 45.9673L43.0468 45.9949V46.0567V46.9326ZM40.2865 31.7731C40.2865 31.6161 40.2384 31.4968 40.1474 31.4058C40.0564 31.3148 39.9371 31.2667 39.7801 31.2667H33.4468C33.2899 31.2667 33.1706 31.3148 33.0796 31.4058C32.9886 31.4968 32.9404 31.6161 32.9404 31.7731V36.8262C32.9404 36.9831 32.9888 37.1175 33.0857 37.2339C33.1785 37.3452 33.296 37.4 33.4468 37.4H39.7801C39.931 37.4 40.0485 37.3452 40.1413 37.2339C40.2382 37.1175 40.2865 36.9831 40.2865 36.8262V31.7731Z" fill="white" stroke="white" stroke-width="0.2"/>
<defs>
<filter id="filter0_d_649_5467" x="0.2" y="0.2" width="75.6" height="75.6" filterUnits="userSpaceOnUse" color-interpolation-filters="sRGB">
<feFlood flood-opacity="0" result="BackgroundImageFix"/>
<feColorMatrix in="SourceAlpha" type="matrix" values="0 0 0 0 0 0 0 0 0 0 0 0 0 0 0 0 0 0 127 0" result="hardAlpha"/>
<feMorphology radius="4" operator="dilate" in="SourceAlpha" result="effect1_dropShadow_649_5467"/>
<feOffset/>
<feGaussianBlur stdDeviation="5.9"/>
<feComposite in2="hardAlpha" operator="out"/>
<feColorMatrix type="matrix" values="0 0 0 0 0 0 0 0 0 0 0 0 0 0 0 0 0 0 0.02 0"/>
<feBlend mode="normal" in2="BackgroundImageFix" result="effect1_dropShadow_649_5467"/>
<feBlend mode="normal" in="SourceGraphic" in2="effect1_dropShadow_649_5467" result="shape"/>
</filter>
</defs>
</svg>
