<svg width="23" height="22" viewBox="0 0 23 22" fill="none" xmlns="http://www.w3.org/2000/svg">
<g clip-path="url(#clip0_825_9435)">
<path d="M4.47974 16.5H18.8311C19.2728 16.5 19.7079 16.3936 20.0998 16.1899C20.4917 15.9861 20.8287 15.691 21.0824 15.3294C21.336 14.9678 21.4989 14.5505 21.5571 14.1126C21.6154 13.6748 21.5673 13.2294 21.417 12.8141L18.8027 5.58617C18.3562 3.9799 17.3958 2.56409 16.0685 1.55528C14.7412 0.546471 13.12 0.000194405 11.4528 9.32535e-10V9.32535e-10C9.71732 -2.71263e-05 8.0337 0.591789 6.67993 1.67774C5.32616 2.76368 4.3832 4.27882 4.00674 5.973L1.85257 12.9397C1.72574 13.351 1.69723 13.7863 1.76932 14.2107C1.84142 14.635 2.01212 15.0365 2.26768 15.3828C2.52324 15.7291 2.85653 16.0107 3.24073 16.2047C3.62493 16.3987 4.04932 16.4999 4.47974 16.5Z" fill="#8E8E8E"/>
<path d="M7.25781 18.3333C7.4682 19.3694 8.03031 20.3009 8.84891 20.9699C9.6675 21.639 10.6922 22.0045 11.7495 22.0045C12.8067 22.0045 13.8315 21.639 14.65 20.9699C15.4686 20.3009 16.0308 19.3694 16.2411 18.3333H7.25781Z" fill="#7E7E7E"/>
</g>
<defs>
<clipPath id="clip0_825_9435">
<rect width="22" height="22" fill="white" transform="translate(0.75)"/>
</clipPath>
</defs>
</svg>
