<svg width="76" height="76" viewBox="0 0 76 76" fill="none" xmlns="http://www.w3.org/2000/svg">
<g filter="url(#filter0_d_702_11379)">
<circle cx="38" cy="38" r="22" fill="#19181D"/>
</g>
<path fill-rule="evenodd" clip-rule="evenodd" d="M47.7929 36.8816C47.1192 39.6423 44.8665 41.7485 42.0753 42.2403C40.8357 42.4583 39.55 42.348 38.3525 41.9081L33.172 47.0899C32.163 48.0982 30.9538 48.1862 29.9466 47.7544C29.2004 47.4337 28.5712 46.8046 28.2483 46.0595C27.8142 45.0537 27.8991 43.8423 28.9064 42.8341L34.0886 37.6505C33.1349 35.05 33.7526 32.1025 35.7507 30.1033C36.7135 29.1403 37.8847 28.5079 39.1201 28.206C40.3942 27.8943 41.7376 27.9363 42.9902 28.3319C43.9555 28.6362 44.2874 29.8698 43.5486 30.6082L40.4057 33.7506L40.6652 35.3345L42.2465 35.5928L45.3855 32.4554C46.1226 31.7185 47.3597 32.0368 47.6685 33.013C48.0639 34.2646 48.1059 35.6068 47.7929 36.8816Z" fill="black" stroke="white" stroke-width="1.5"/>
<path d="M32 45C32 45.5523 31.5523 46 31 46C30.4477 46 30 45.5523 30 45C30 44.4477 30.4477 44 31 44C31.5523 44 32 44.4477 32 45Z" fill="white"/>
<defs>
<filter id="filter0_d_702_11379" x="0.2" y="0.2" width="75.6" height="75.6" filterUnits="userSpaceOnUse" color-interpolation-filters="sRGB">
<feFlood flood-opacity="0" result="BackgroundImageFix"/>
<feColorMatrix in="SourceAlpha" type="matrix" values="0 0 0 0 0 0 0 0 0 0 0 0 0 0 0 0 0 0 127 0" result="hardAlpha"/>
<feMorphology radius="4" operator="dilate" in="SourceAlpha" result="effect1_dropShadow_702_11379"/>
<feOffset/>
<feGaussianBlur stdDeviation="5.9"/>
<feComposite in2="hardAlpha" operator="out"/>
<feColorMatrix type="matrix" values="0 0 0 0 0 0 0 0 0 0 0 0 0 0 0 0 0 0 0.02 0"/>
<feBlend mode="normal" in2="BackgroundImageFix" result="effect1_dropShadow_702_11379"/>
<feBlend mode="normal" in="SourceGraphic" in2="effect1_dropShadow_702_11379" result="shape"/>
</filter>
</defs>
</svg>
