<svg width="17" height="17" viewBox="0 0 17 17" fill="none" xmlns="http://www.w3.org/2000/svg">
<path d="M1 7.74997C0.585786 7.74997 0.25 8.08576 0.25 8.49997C0.25 8.91419 0.585786 9.24997 1 9.24997V7.74997ZM8.5 9.24997C8.91421 9.24997 9.25 8.91419 9.25 8.49997C9.25 8.08576 8.91421 7.74997 8.5 7.74997V9.24997ZM8.5 7.74997C8.08579 7.74997 7.75 8.08576 7.75 8.49997C7.75 8.91419 8.08579 9.24997 8.5 9.24997V7.74997ZM16 9.24997C16.4142 9.24997 16.75 8.91419 16.75 8.49997C16.75 8.08576 16.4142 7.74997 16 7.74997V9.24997ZM9.24955 8.5C9.24955 8.08579 8.91376 7.75 8.49955 7.75C8.08534 7.75 7.74955 8.08579 7.74955 8.5H9.24955ZM7.74955 16C7.74955 16.4142 8.08534 16.75 8.49955 16.75C8.91376 16.75 9.24955 16.4142 9.24955 16H7.74955ZM7.74955 8.5C7.74955 8.91421 8.08534 9.25 8.49955 9.25C8.91376 9.25 9.24955 8.91421 9.24955 8.5H7.74955ZM9.24955 1C9.24955 0.585786 8.91376 0.25 8.49955 0.25C8.08534 0.25 7.74955 0.585786 7.74955 1H9.24955ZM1 9.24997H8.5V7.74997H1V9.24997ZM8.5 9.24997H16V7.74997H8.5V9.24997ZM8.49955 8.5C8.49955 8.5 7.74955 8.5 7.74955 8.5C7.74955 8.5 7.74955 8.5 7.74955 8.5C7.74955 8.5 7.74955 8.5 7.74955 8.5C7.74955 8.5 7.74955 8.5 7.74955 8.5C7.74955 8.5 7.74955 8.50001 7.74955 8.50001C7.74955 8.50001 7.74955 8.50001 7.74955 8.50001C7.74955 8.50001 7.74955 8.50002 7.74955 8.50002C7.74955 8.50002 7.74955 8.50003 7.74955 8.50003C7.74955 8.50003 7.74955 8.50004 7.74955 8.50004C7.74955 8.50005 7.74955 8.50005 7.74955 8.50006C7.74955 8.50006 7.74955 8.50007 7.74955 8.50007C7.74955 8.50008 7.74955 8.50009 7.74955 8.5001C7.74955 8.5001 7.74955 8.50011 7.74955 8.50012C7.74955 8.50013 7.74955 8.50014 7.74955 8.50015C7.74955 8.50016 7.74955 8.50018 7.74955 8.50019C7.74955 8.5002 7.74955 8.50021 7.74955 8.50023C7.74955 8.50024 7.74955 8.50026 7.74955 8.50027C7.74955 8.50029 7.74955 8.50031 7.74955 8.50033C7.74955 8.50034 7.74955 8.50036 7.74955 8.50038C7.74955 8.5004 7.74955 8.50042 7.74955 8.50045C7.74955 8.50047 7.74955 8.50049 7.74955 8.50052C7.74955 8.50054 7.74955 8.50057 7.74955 8.5006C7.74955 8.50062 7.74955 8.50065 7.74955 8.50068C7.74955 8.50071 7.74955 8.50074 7.74955 8.50077C7.74955 8.5008 7.74955 8.50084 7.74955 8.50087C7.74955 8.50091 7.74955 8.50094 7.74955 8.50098C7.74955 8.50102 7.74955 8.50106 7.74955 8.5011C7.74955 8.50114 7.74955 8.50118 7.74955 8.50123C7.74955 8.50127 7.74955 8.50132 7.74955 8.50136C7.74955 8.50141 7.74955 8.50146 7.74955 8.50151C7.74955 8.50156 7.74955 8.50161 7.74955 8.50166C7.74955 8.50172 7.74955 8.50177 7.74955 8.50183C7.74955 8.50189 7.74955 8.50195 7.74955 8.50201C7.74955 8.50207 7.74955 8.50213 7.74955 8.5022C7.74955 8.50226 7.74955 8.50233 7.74955 8.5024C7.74955 8.50246 7.74955 8.50253 7.74955 8.50261C7.74955 8.50268 7.74955 8.50275 7.74955 8.50283C7.74955 8.50291 7.74955 8.50299 7.74955 8.50307C7.74955 8.50315 7.74955 8.50323 7.74955 8.50331C7.74955 8.5034 7.74955 8.50349 7.74955 8.50358C7.74955 8.50367 7.74955 8.50376 7.74955 8.50385C7.74955 8.50395 7.74955 8.50404 7.74955 8.50414C7.74955 8.50424 7.74955 8.50434 7.74955 8.50444C7.74955 8.50455 7.74955 8.50465 7.74955 8.50476C7.74955 8.50487 7.74955 8.50498 7.74955 8.50509C7.74955 8.50521 7.74955 8.50532 7.74955 8.50544C7.74955 8.50556 7.74955 8.50568 7.74955 8.5058C7.74955 8.50592 7.74955 8.50605 7.74955 8.50618C7.74955 8.50631 7.74955 8.50644 7.74955 8.50657C7.74955 8.50671 7.74955 8.50685 7.74955 8.50698C7.74955 8.50712 7.74955 8.50727 7.74955 8.50741C7.74955 8.50756 7.74955 8.50771 7.74955 8.50786C7.74955 8.50801 7.74955 8.50816 7.74955 8.50832C7.74955 8.50848 7.74955 8.50864 7.74955 8.5088C7.74955 8.50896 7.74955 8.50913 7.74955 8.5093C7.74955 8.50947 7.74955 8.50964 7.74955 8.50981C7.74955 8.50999 7.74955 8.51017 7.74955 8.51035C7.74955 8.51053 7.74955 8.51071 7.74955 8.5109C7.74955 8.51109 7.74955 8.51128 7.74955 8.51148C7.74955 8.51167 7.74955 8.51187 7.74955 8.51207C7.74955 8.51227 7.74955 8.51248 7.74955 8.51268C7.74955 8.51289 7.74955 8.5131 7.74955 8.51332C7.74955 8.51353 7.74955 8.51375 7.74955 8.51397C7.74955 8.51419 7.74955 8.51442 7.74955 8.51465C7.74955 8.51488 7.74955 8.51511 7.74955 8.51535C7.74955 8.51558 7.74955 8.51582 7.74955 8.51607C7.74955 8.51631 7.74955 8.51656 7.74955 8.51681C7.74955 8.51706 7.74955 8.51731 7.74955 8.51757C7.74955 8.51783 7.74955 8.51809 7.74955 8.51836C7.74955 8.51862 7.74955 8.51889 7.74955 8.51917C7.74955 8.51944 7.74955 8.51972 7.74955 8.52C7.74955 8.52028 7.74955 8.52057 7.74955 8.52086C7.74955 8.52115 7.74955 8.52144 7.74955 8.52174C7.74955 8.52204 7.74955 8.52234 7.74955 8.52264C7.74955 8.52295 7.74955 8.52326 7.74955 8.52357C7.74955 8.52389 7.74955 8.52421 7.74955 8.52453C7.74955 8.52485 7.74955 8.52518 7.74955 8.52551C7.74955 8.52584 7.74955 8.52618 7.74955 8.52652C7.74955 8.52686 7.74955 8.5272 7.74955 8.52755C7.74955 8.5279 7.74955 8.52825 7.74955 8.52861C7.74955 8.52897 7.74955 8.52933 7.74955 8.5297C7.74955 8.53006 7.74955 8.53043 7.74955 8.53081C7.74955 8.53119 7.74955 8.53157 7.74955 8.53195C7.74955 8.53234 7.74955 8.53273 7.74955 8.53312C7.74955 8.53351 7.74955 8.53391 7.74955 8.53432C7.74955 8.53472 7.74955 8.53513 7.74955 8.53554C7.74955 8.53596 7.74955 8.53637 7.74955 8.5368C7.74955 8.53722 7.74955 8.53765 7.74955 8.53808C7.74955 8.53851 7.74955 8.53895 7.74955 8.53939C7.74955 8.53984 7.74955 8.54028 7.74955 8.54074C7.74955 8.54119 7.74955 8.54165 7.74955 8.54211C7.74955 8.54257 7.74955 8.54304 7.74955 8.54351C7.74955 8.54399 7.74955 8.54446 7.74955 8.54495C7.74955 8.54543 7.74955 8.54592 7.74955 8.54641C7.74955 8.54691 7.74955 8.54741 7.74955 8.54791C7.74955 8.54841 7.74955 8.54892 7.74955 8.54944C7.74955 8.54995 7.74955 8.55047 7.74955 8.551C7.74955 8.55153 7.74955 8.55206 7.74955 8.55259C7.74955 8.55313 7.74955 8.55367 7.74955 8.55422C7.74955 8.55477 7.74955 8.55532 7.74955 8.55588C7.74955 8.55644 7.74955 8.557 7.74955 8.55757C7.74955 8.55814 7.74955 8.55872 7.74955 8.5593C7.74955 8.55988 7.74955 8.56047 7.74955 8.56106C7.74955 8.56165 7.74955 8.56225 7.74955 8.56286C7.74955 8.56346 7.74955 8.56407 7.74955 8.56469C7.74955 8.5653 7.74955 8.56593 7.74955 8.56655C7.74955 8.56718 7.74955 8.56781 7.74955 8.56845C7.74955 8.56909 7.74955 8.56974 7.74955 8.57039C7.74955 8.57104 7.74955 8.5717 7.74955 8.57237C7.74955 8.57303 7.74955 8.5737 7.74955 8.57438C7.74955 8.57505 7.74955 8.57573 7.74955 8.57642C7.74955 8.57711 7.74955 8.57781 7.74955 8.57851C7.74955 8.57921 7.74955 8.57991 7.74955 8.58063C7.74955 8.58134 7.74955 8.58206 7.74955 8.58279C7.74955 8.58351 7.74955 8.58425 7.74955 8.58499C7.74955 8.58572 7.74955 8.58647 7.74955 8.58722C7.74955 8.58797 7.74955 8.58873 7.74955 8.5895C7.74955 8.59026 7.74955 8.59103 7.74955 8.59181C7.74955 8.59259 7.74955 8.59337 7.74955 8.59417C7.74955 8.59496 7.74955 8.59575 7.74955 8.59656C7.74955 8.59736 7.74955 8.59818 7.74955 8.59899C7.74955 8.59981 7.74955 8.60064 7.74955 8.60147C7.74955 8.6023 7.74955 8.60314 7.74955 8.60398C7.74955 8.60483 7.74955 8.60568 7.74955 8.60654C7.74955 8.6074 7.74955 8.60827 7.74955 8.60914C7.74955 8.61001 7.74955 8.61089 7.74955 8.61178C7.74955 8.61267 7.74955 8.61356 7.74955 8.61446C7.74955 8.61536 7.74955 8.61627 7.74955 8.61719C7.74955 8.6181 7.74955 8.61903 7.74955 8.61996C7.74955 8.62089 7.74955 8.62182 7.74955 8.62277C7.74955 8.62371 7.74955 8.62466 7.74955 8.62562C7.74955 8.62658 7.74955 8.62755 7.74955 8.62852C7.74955 8.62949 7.74955 8.63048 7.74955 8.63146C7.74955 8.63245 7.74955 8.63345 7.74955 8.63445C7.74955 8.63545 7.74955 8.63647 7.74955 8.63748C7.74955 8.6385 7.74955 8.63953 7.74955 8.64056C7.74955 8.6416 7.74955 8.64264 7.74955 8.64369C7.74955 8.64473 7.74955 8.64579 7.74955 8.64685C7.74955 8.64792 7.74955 8.64899 7.74955 8.65007C7.74955 8.65115 7.74955 8.65224 7.74955 8.65333C7.74955 8.65443 7.74955 8.65553 7.74955 8.65664C7.74955 8.65775 7.74955 8.65887 7.74955 8.66C7.74955 8.66113 7.74955 8.66226 7.74955 8.6634C7.74955 8.66455 7.74955 8.6657 7.74955 8.66685C7.74955 8.66801 7.74955 8.66918 7.74955 8.67036C7.74955 8.67153 7.74955 8.67271 7.74955 8.6739C7.74955 8.6751 7.74955 8.67629 7.74955 8.6775C7.74955 8.67871 7.74955 8.67993 7.74955 8.68115C7.74955 8.68237 7.74955 8.68361 7.74955 8.68485C7.74955 8.68609 7.74955 8.68734 7.74955 8.68859C7.74955 8.68985 7.74955 8.69112 7.74955 8.69239C7.74955 8.69366 7.74955 8.69495 7.74955 8.69624C7.74955 8.69753 7.74955 8.69883 7.74955 8.70014C7.74955 8.70144 7.74955 8.70276 7.74955 8.70409C7.74955 8.70541 7.74955 8.70675 7.74955 8.70809C7.74955 8.70943 7.74955 8.71078 7.74955 8.71214C7.74955 8.7135 7.74955 8.71487 7.74955 8.71625C7.74955 8.71762 7.74955 8.71901 7.74955 8.72041C7.74955 8.7218 7.74955 8.7232 7.74955 8.72462C7.74955 8.72603 7.74955 8.72745 7.74955 8.72888C7.74955 8.73031 7.74955 8.73175 7.74955 8.7332C7.74955 8.73465 7.74955 8.73611 7.74955 8.73757C7.74955 8.73904 7.74955 8.74051 7.74955 8.742C7.74955 8.74348 7.74955 8.74498 7.74955 8.74648C7.74955 8.74798 7.74955 8.7495 7.74955 8.75102C7.74955 8.75254 7.74955 8.75407 7.74955 8.75561C7.74955 8.75715 7.74955 8.7587 7.74955 8.76026C7.74955 8.76181 7.74955 8.76338 7.74955 8.76496C7.74955 8.76654 7.74955 8.76812 7.74955 8.76972C7.74955 8.77131 7.74955 8.77292 7.74955 8.77454C7.74955 8.77615 7.74955 8.77777 7.74955 8.77941C7.74955 8.78104 7.74955 8.78269 7.74955 8.78434C7.74955 8.78599 7.74955 8.78766 7.74955 8.78933C7.74955 8.791 7.74955 8.79268 7.74955 8.79437C7.74955 8.79607 7.74955 8.79777 7.74955 8.79948C7.74955 8.80119 7.74955 8.80291 7.74955 8.80464C7.74955 8.80637 7.74955 8.80811 7.74955 8.80986C7.74955 8.81161 7.74955 8.81338 7.74955 8.81515C7.74955 8.81692 7.74955 8.8187 7.74955 8.82049C7.74955 8.82228 7.74955 8.82408 7.74955 8.82589C7.74955 8.8277 7.74955 8.82952 7.74955 8.83135C7.74955 8.83318 7.74955 8.83502 7.74955 8.83687C7.74955 8.83872 7.74955 8.84058 7.74955 8.84246C7.74955 8.84433 7.74955 8.84621 7.74955 8.8481C7.74955 8.84999 7.74955 8.85189 7.74955 8.85381C7.74955 8.85572 7.74955 8.85764 7.74955 8.85958C7.74955 8.86151 7.74955 8.86345 7.74955 8.86541C7.74955 8.86736 7.74955 8.86932 7.74955 8.8713C7.74955 8.87327 7.74955 8.87526 7.74955 8.87726C7.74955 8.87925 7.74955 8.88126 7.74955 8.88328C7.74955 8.88529 7.74955 8.88732 7.74955 8.88936C7.74955 8.8914 7.74955 8.89345 7.74955 8.89551C7.74955 8.89757 7.74955 8.89964 7.74955 8.90172C7.74955 8.9038 7.74955 8.90589 7.74955 8.908C7.74955 8.9101 7.74955 8.91221 7.74955 8.91434C7.74955 8.91646 7.74955 8.9186 7.74955 8.92075C7.74955 8.92289 7.74955 8.92505 7.74955 8.92722C7.74955 8.92939 7.74955 8.93157 7.74955 8.93376C7.74955 8.93595 7.74955 8.93815 7.74955 8.94036C7.74955 8.94258 7.74955 8.9448 7.74955 8.94703C7.74955 8.94927 7.74955 8.95152 7.74955 8.95377C7.74955 8.95603 7.74955 8.9583 7.74955 8.96058C7.74955 8.96286 7.74955 8.96515 7.74955 8.96745C7.74955 8.96976 7.74955 8.97207 7.74955 8.9744C7.74955 8.97672 7.74955 8.97906 7.74955 8.98141C7.74955 8.98376 7.74955 8.98612 7.74955 8.98849C7.74955 8.99086 7.74955 8.99324 7.74955 8.99564C7.74955 8.99803 7.74955 9.00044 7.74955 9.00285C7.74955 9.00527 7.74955 9.0077 7.74955 9.01014C7.74955 9.01258 7.74955 9.01503 7.74955 9.0175C7.74955 9.01996 7.74955 9.02244 7.74955 9.02493C7.74955 9.02741 7.74955 9.02991 7.74955 9.03243C7.74955 9.03494 7.74955 9.03746 7.74955 9.04C7.74955 9.04253 7.74955 9.04508 7.74955 9.04764C7.74955 9.0502 7.74955 9.05277 7.74955 9.05535C7.74955 9.05793 7.74955 9.06053 7.74955 9.06314C7.74955 9.06574 7.74955 9.06836 7.74955 9.07099C7.74955 9.07362 7.74955 9.07627 7.74955 9.07892C7.74955 9.08158 7.74955 9.08425 7.74955 9.08693C7.74955 9.08961 7.74955 9.0923 7.74955 9.095C7.74955 9.09771 7.74955 9.10042 7.74955 9.10315C7.74955 9.10588 7.74955 9.10862 7.74955 9.11138C7.74955 9.11413 7.74955 9.1169 7.74955 9.11968C7.74955 9.12246 7.74955 9.12525 7.74955 9.12805C7.74955 9.13086 7.74955 9.13367 7.74955 9.1365C7.74955 9.13933 7.74955 9.14217 7.74955 9.14503C7.74955 9.14788 7.74955 9.15075 7.74955 9.15363C7.74955 9.1565 7.74955 9.1594 7.74955 9.1623C7.74955 9.16521 7.74955 9.16812 7.74955 9.17105C7.74955 9.17398 7.74955 9.17693 7.74955 9.17988C7.74955 9.18284 7.74955 9.18581 7.74955 9.18879C7.74955 9.19177 7.74955 9.19477 7.74955 9.19777C7.74955 9.20078 7.74955 9.2038 7.74955 9.20684C7.74955 9.20987 7.74955 9.21292 7.74955 9.21598C7.74955 9.21904 7.74955 9.22211 7.74955 9.2252C7.74955 9.22828 7.74955 9.23138 7.74955 9.23449C7.74955 9.2376 7.74955 9.24073 7.74955 9.24387C7.74955 9.24701 7.74955 9.25016 7.74955 9.25332C7.74955 9.25649 7.74955 9.25967 7.74955 9.26286C7.74955 9.26605 7.74955 9.26926 7.74955 9.27248C7.74955 9.27569 7.74955 9.27893 7.74955 9.28217C7.74955 9.28542 7.74955 9.28868 7.74955 9.29195C7.74955 9.29522 7.74955 9.29851 7.74955 9.30181C7.74955 9.30511 7.74955 9.30842 7.74955 9.31175C7.74955 9.31507 7.74955 9.31841 7.74955 9.32177C7.74955 9.32512 7.74955 9.32849 7.74955 9.33187C7.74955 9.33525 7.74955 9.33865 7.74955 9.34206C7.74955 9.34547 7.74955 9.34889 7.74955 9.35233C7.74955 9.35576 7.74955 9.35921 7.74955 9.36268C7.74955 9.36614 7.74955 9.36962 7.74955 9.37311C7.74955 9.37661 7.74955 9.38011 7.74955 9.38363C7.74955 9.38715 7.74955 9.39069 7.74955 9.39424C7.74955 9.39779 7.74955 9.40135 7.74955 9.40493C7.74955 9.4085 7.74955 9.41209 7.74955 9.4157C7.74955 9.4193 7.74955 9.42292 7.74955 9.42656C7.74955 9.43019 7.74955 9.43384 7.74955 9.4375C7.74955 9.44116 7.74955 9.44484 7.74955 9.44853C7.74955 9.45222 7.74955 9.45593 7.74955 9.45964C7.74955 9.46336 7.74955 9.4671 7.74955 9.47085C7.74955 9.4746 7.74955 9.47836 7.74955 9.48214C7.74955 9.48591 7.74955 9.4897 7.74955 9.49351C7.74955 9.49732 7.74955 9.50114 7.74955 9.50497C7.74955 9.50881 7.74955 9.51266 7.74955 9.51653C7.74955 9.52039 7.74955 9.52427 7.74955 9.52817C7.74955 9.53206 7.74955 9.53597 7.74955 9.53989C7.74955 9.54382 7.74955 9.54776 7.74955 9.55171C7.74955 9.55566 7.74955 9.55963 7.74955 9.56362C7.74955 9.5676 7.74955 9.5716 7.74955 9.57561C7.74955 9.57963 7.74955 9.58365 7.74955 9.5877C7.74955 9.59174 7.74955 9.5958 7.74955 9.59987C7.74955 9.60395 7.74955 9.60804 7.74955 9.61214C7.74955 9.61624 7.74955 9.62036 7.74955 9.6245C7.74955 9.62863 7.74955 9.63278 7.74955 9.63694C7.74955 9.64111 7.74955 9.64529 7.74955 9.64948C7.74955 9.65368 7.74955 9.65789 7.74955 9.66212C7.74955 9.66634 7.74955 9.67058 7.74955 9.67484C7.74955 9.6791 7.74955 9.68337 7.74955 9.68766C7.74955 9.69194 7.74955 9.69625 7.74955 9.70057C7.74955 9.70488 7.74955 9.70922 7.74955 9.71357C7.74955 9.71792 7.74955 9.72228 7.74955 9.72666C7.74955 9.73104 7.74955 9.73544 7.74955 9.73985C7.74955 9.74427 7.74955 9.74869 7.74955 9.75314C7.74955 9.75758 7.74955 9.76204 7.74955 9.76652C7.74955 9.77099 7.74955 9.77548 7.74955 9.77999C7.74955 9.7845 7.74955 9.78902 7.74955 9.79356C7.74955 9.7981 7.74955 9.80265 7.74955 9.80722C7.74955 9.81179 7.74955 9.81638 7.74955 9.82098C7.74955 9.82559 7.74955 9.8302 7.74955 9.83484C7.74955 9.83947 7.74955 9.84412 7.74955 9.84879C7.74955 9.85346 7.74955 9.85814 7.74955 9.86284C7.74955 9.86754 7.74955 9.87226 7.74955 9.87699C7.74955 9.88172 7.74955 9.88647 7.74955 9.89123C7.74955 9.896 7.74955 9.90078 7.74955 9.90558C7.74955 9.91037 7.74955 9.91519 7.74955 9.92002C7.74955 9.92485 7.74955 9.92969 7.74955 9.93456C7.74955 9.93942 7.74955 9.9443 7.74955 9.94919C7.74955 9.95409 7.74955 9.959 7.74955 9.96393C7.74955 9.96886 7.74955 9.97381 7.74955 9.97877C7.74955 9.98373 7.74955 9.98871 7.74955 9.99371C7.74955 9.9987 7.74955 10.0037 7.74955 10.0087C7.74955 10.0138 7.74955 10.0188 7.74955 10.0239C7.74955 10.0289 7.74955 10.034 7.74955 10.0391C7.74955 10.0442 7.74955 10.0493 7.74955 10.0545C7.74955 10.0596 7.74955 10.0647 7.74955 10.0699C7.74955 10.0751 7.74955 10.0802 7.74955 10.0854C7.74955 10.0906 7.74955 10.0959 7.74955 10.1011C7.74955 10.1063 7.74955 10.1116 7.74955 10.1168C7.74955 10.1221 7.74955 10.1274 7.74955 10.1327C7.74955 10.138 7.74955 10.1433 7.74955 10.1486C7.74955 10.154 7.74955 10.1593 7.74955 10.1647C7.74955 10.1701 7.74955 10.1755 7.74955 10.1809C7.74955 10.1863 7.74955 10.1917 7.74955 10.1971C7.74955 10.2026 7.74955 10.208 7.74955 10.2135C7.74955 10.219 7.74955 10.2245 7.74955 10.23C7.74955 10.2355 7.74955 10.241 7.74955 10.2466C7.74955 10.2521 7.74955 10.2577 7.74955 10.2632C7.74955 10.2688 7.74955 10.2744 7.74955 10.28C7.74955 10.2857 7.74955 10.2913 7.74955 10.2969C7.74955 10.3026 7.74955 10.3083 7.74955 10.3139C7.74955 10.3196 7.74955 10.3253 7.74955 10.3311C7.74955 10.3368 7.74955 10.3425 7.74955 10.3483C7.74955 10.354 7.74955 10.3598 7.74955 10.3656C7.74955 10.3714 7.74955 10.3772 7.74955 10.383C7.74955 10.3889 7.74955 10.3947 7.74955 10.4006C7.74955 10.4064 7.74955 10.4123 7.74955 10.4182C7.74955 10.4241 7.74955 10.4301 7.74955 10.436C7.74955 10.4419 7.74955 10.4479 7.74955 10.4539C7.74955 10.4598 7.74955 10.4658 7.74955 10.4718C7.74955 10.4779 7.74955 10.4839 7.74955 10.4899C7.74955 10.496 7.74955 10.5021 7.74955 10.5081C7.74955 10.5142 7.74955 10.5203 7.74955 10.5264C7.74955 10.5326 7.74955 10.5387 7.74955 10.5449C7.74955 10.551 7.74955 10.5572 7.74955 10.5634C7.74955 10.5696 7.74955 10.5758 7.74955 10.582C7.74955 10.5883 7.74955 10.5945 7.74955 10.6008C7.74955 10.6071 7.74955 10.6134 7.74955 10.6197C7.74955 10.626 7.74955 10.6323 7.74955 10.6387C7.74955 10.645 7.74955 10.6514 7.74955 10.6578C7.74955 10.6641 7.74955 10.6705 7.74955 10.677C7.74955 10.6834 7.74955 10.6898 7.74955 10.6963C7.74955 10.7027 7.74955 10.7092 7.74955 10.7157C7.74955 10.7222 7.74955 10.7287 7.74955 10.7353C7.74955 10.7418 7.74955 10.7484 7.74955 10.7549C7.74955 10.7615 7.74955 10.7681 7.74955 10.7747C7.74955 10.7813 7.74955 10.788 7.74955 10.7946C7.74955 10.8013 7.74955 10.8079 7.74955 10.8146C7.74955 10.8213 7.74955 10.828 7.74955 10.8347C7.74955 10.8415 7.74955 10.8482 7.74955 10.855C7.74955 10.8618 7.74955 10.8685 7.74955 10.8754C7.74955 10.8822 7.74955 10.889 7.74955 10.8958C7.74955 10.9027 7.74955 10.9095 7.74955 10.9164C7.74955 10.9233 7.74955 10.9302 7.74955 10.9371C7.74955 10.9441 7.74955 10.951 7.74955 10.958C7.74955 10.9649 7.74955 10.9719 7.74955 10.9789C7.74955 10.9859 7.74955 10.9929 7.74955 11C7.74955 11.007 7.74955 11.0141 7.74955 11.0212C7.74955 11.0282 7.74955 11.0353 7.74955 11.0425C7.74955 11.0496 7.74955 11.0567 7.74955 11.0639C7.74955 11.0711 7.74955 11.0782 7.74955 11.0854C7.74955 11.0926 7.74955 11.0999 7.74955 11.1071C7.74955 11.1143 7.74955 11.1216 7.74955 11.1289C7.74955 11.1362 7.74955 11.1435 7.74955 11.1508C7.74955 11.1581 7.74955 11.1655 7.74955 11.1728C7.74955 11.1802 7.74955 11.1876 7.74955 11.195C7.74955 11.2024 7.74955 11.2098 7.74955 11.2173C7.74955 11.2247 7.74955 11.2322 7.74955 11.2396C7.74955 11.2471 7.74955 11.2546 7.74955 11.2622C7.74955 11.2697 7.74955 11.2772 7.74955 11.2848C7.74955 11.2924 7.74955 11.3 7.74955 11.3076C7.74955 11.3152 7.74955 11.3228 7.74955 11.3305C7.74955 11.3381 7.74955 11.3458 7.74955 11.3535C7.74955 11.3612 7.74955 11.3689 7.74955 11.3766C7.74955 11.3843 7.74955 11.3921 7.74955 11.3999C7.74955 11.4076 7.74955 11.4154 7.74955 11.4233C7.74955 11.4311 7.74955 11.4389 7.74955 11.4468C7.74955 11.4546 7.74955 11.4625 7.74955 11.4704C7.74955 11.4783 7.74955 11.4862 7.74955 11.4942C7.74955 11.5021 7.74955 11.5101 7.74955 11.5181C7.74955 11.526 7.74955 11.534 7.74955 11.5421C7.74955 11.5501 7.74955 11.5581 7.74955 11.5662C7.74955 11.5743 7.74955 11.5824 7.74955 11.5905C7.74955 11.5986 7.74955 11.6067 7.74955 11.6149C7.74955 11.623 7.74955 11.6312 7.74955 11.6394C7.74955 11.6476 7.74955 11.6558 7.74955 11.6641C7.74955 11.6723 7.74955 11.6806 7.74955 11.6888C7.74955 11.6971 7.74955 11.7054 7.74955 11.7138C7.74955 11.7221 7.74955 11.7304 7.74955 11.7388C7.74955 11.7472 7.74955 11.7556 7.74955 11.764C7.74955 11.7724 7.74955 11.7808 7.74955 11.7893C7.74955 11.7977 7.74955 11.8062 7.74955 11.8147C7.74955 11.8232 7.74955 11.8317 7.74955 11.8403C7.74955 11.8488 7.74955 11.8574 7.74955 11.866C7.74955 11.8746 7.74955 11.8832 7.74955 11.8918C7.74955 11.9004 7.74955 11.9091 7.74955 11.9177C7.74955 11.9264 7.74955 11.9351 7.74955 11.9438C7.74955 11.9526 7.74955 11.9613 7.74955 11.9701C7.74955 11.9788 7.74955 11.9876 7.74955 11.9964C7.74955 12.0052 7.74955 12.0141 7.74955 12.0229C7.74955 12.0318 7.74955 12.0406 7.74955 12.0495C7.74955 12.0584 7.74955 12.0673 7.74955 12.0763C7.74955 12.0852 7.74955 12.0942 7.74955 12.1032C7.74955 12.1122 7.74955 12.1212 7.74955 12.1302C7.74955 12.1392 7.74955 12.1483 7.74955 12.1573C7.74955 12.1664 7.74955 12.1755 7.74955 12.1846C7.74955 12.1938 7.74955 12.2029 7.74955 12.2121C7.74955 12.2212 7.74955 12.2304 7.74955 12.2396C7.74955 12.2488 7.74955 12.2581 7.74955 12.2673C7.74955 12.2766 7.74955 12.2859 7.74955 12.2952C7.74955 12.3045 7.74955 12.3138 7.74955 12.3231C7.74955 12.3325 7.74955 12.3419 7.74955 12.3513C7.74955 12.3607 7.74955 12.3701 7.74955 12.3795C7.74955 12.3889 7.74955 12.3984 7.74955 12.4079C7.74955 12.4174 7.74955 12.4269 7.74955 12.4364C7.74955 12.446 7.74955 12.4555 7.74955 12.4651C7.74955 12.4747 7.74955 12.4843 7.74955 12.4939C7.74955 12.5035 7.74955 12.5132 7.74955 12.5228C7.74955 12.5325 7.74955 12.5422 7.74955 12.5519C7.74955 12.5616 7.74955 12.5714 7.74955 12.5811C7.74955 12.5909 7.74955 12.6007 7.74955 12.6105C7.74955 12.6203 7.74955 12.6301 7.74955 12.64C7.74955 12.6498 7.74955 12.6597 7.74955 12.6696C7.74955 12.6795 7.74955 12.6895 7.74955 12.6994C7.74955 12.7094 7.74955 12.7193 7.74955 12.7293C7.74955 12.7393 7.74955 12.7494 7.74955 12.7594C7.74955 12.7695 7.74955 12.7795 7.74955 12.7896C7.74955 12.7997 7.74955 12.8098 7.74955 12.82C7.74955 12.8301 7.74955 12.8403 7.74955 12.8505C7.74955 12.8606 7.74955 12.8709 7.74955 12.8811C7.74955 12.8913 7.74955 12.9016 7.74955 12.9119C7.74955 12.9222 7.74955 12.9325 7.74955 12.9428C7.74955 12.9531 7.74955 12.9635 7.74955 12.9739C7.74955 12.9842 7.74955 12.9947 7.74955 13.0051C7.74955 13.0155 7.74955 13.026 7.74955 13.0364C7.74955 13.0469 7.74955 13.0574 7.74955 13.0679C7.74955 13.0785 7.74955 13.089 7.74955 13.0996C7.74955 13.1102 7.74955 13.1208 7.74955 13.1314C7.74955 13.142 7.74955 13.1527 7.74955 13.1633C7.74955 13.174 7.74955 13.1847 7.74955 13.1954C7.74955 13.2061 7.74955 13.2169 7.74955 13.2276C7.74955 13.2384 7.74955 13.2492 7.74955 13.26C7.74955 13.2708 7.74955 13.2817 7.74955 13.2926C7.74955 13.3034 7.74955 13.3143 7.74955 13.3252C7.74955 13.3361 7.74955 13.3471 7.74955 13.3581C7.74955 13.369 7.74955 13.38 7.74955 13.391C7.74955 13.402 7.74955 13.4131 7.74955 13.4242C7.74955 13.4352 7.74955 13.4463 7.74955 13.4574C7.74955 13.4685 7.74955 13.4797 7.74955 13.4908C7.74955 13.502 7.74955 13.5132 7.74955 13.5244C7.74955 13.5356 7.74955 13.5469 7.74955 13.5581C7.74955 13.5694 7.74955 13.5807 7.74955 13.592C7.74955 13.6033 7.74955 13.6147 7.74955 13.626C7.74955 13.6374 7.74955 13.6488 7.74955 13.6602C7.74955 13.6716 7.74955 13.6831 7.74955 13.6945C7.74955 13.706 7.74955 13.7175 7.74955 13.729C7.74955 13.7405 7.74955 13.7521 7.74955 13.7636C7.74955 13.7752 7.74955 13.7868 7.74955 13.7984C7.74955 13.81 7.74955 13.8217 7.74955 13.8333C7.74955 13.845 7.74955 13.8567 7.74955 13.8684C7.74955 13.8802 7.74955 13.8919 7.74955 13.9037C7.74955 13.9155 7.74955 13.9272 7.74955 13.9391C7.74955 13.9509 7.74955 13.9627 7.74955 13.9746C7.74955 13.9865 7.74955 13.9984 7.74955 14.0103C7.74955 14.0223 7.74955 14.0342 7.74955 14.0462C7.74955 14.0582 7.74955 14.0702 7.74955 14.0822C7.74955 14.0942 7.74955 14.1063 7.74955 14.1184C7.74955 14.1305 7.74955 14.1426 7.74955 14.1547C7.74955 14.1668 7.74955 14.179 7.74955 14.1912C7.74955 14.2034 7.74955 14.2156 7.74955 14.2278C7.74955 14.2401 7.74955 14.2523 7.74955 14.2646C7.74955 14.2769 7.74955 14.2892 7.74955 14.3016C7.74955 14.3139 7.74955 14.3263 7.74955 14.3387C7.74955 14.3511 7.74955 14.3635 7.74955 14.3759C7.74955 14.3884 7.74955 14.4009 7.74955 14.4134C7.74955 14.4259 7.74955 14.4384 7.74955 14.451C7.74955 14.4635 7.74955 14.4761 7.74955 14.4887C7.74955 14.5013 7.74955 14.5139 7.74955 14.5266C7.74955 14.5393 7.74955 14.5519 7.74955 14.5647C7.74955 14.5774 7.74955 14.5901 7.74955 14.6029C7.74955 14.6157 7.74955 14.6284 7.74955 14.6413C7.74955 14.6541 7.74955 14.6669 7.74955 14.6798C7.74955 14.6927 7.74955 14.7056 7.74955 14.7185C7.74955 14.7314 7.74955 14.7444 7.74955 14.7574C7.74955 14.7704 7.74955 14.7834 7.74955 14.7964C7.74955 14.8094 7.74955 14.8225 7.74955 14.8356C7.74955 14.8487 7.74955 14.8618 7.74955 14.8749C7.74955 14.8881 7.74955 14.9013 7.74955 14.9145C7.74955 14.9277 7.74955 14.9409 7.74955 14.9541C7.74955 14.9674 7.74955 14.9807 7.74955 14.994C7.74955 15.0073 7.74955 15.0206 7.74955 15.034C7.74955 15.0473 7.74955 15.0607 7.74955 15.0742C7.74955 15.0876 7.74955 15.101 7.74955 15.1145C7.74955 15.128 7.74955 15.1415 7.74955 15.155C7.74955 15.1685 7.74955 15.1821 7.74955 15.1956C7.74955 15.2092 7.74955 15.2228 7.74955 15.2365C7.74955 15.2501 7.74955 15.2638 7.74955 15.2775C7.74955 15.2912 7.74955 15.3049 7.74955 15.3186C7.74955 15.3324 7.74955 15.3461 7.74955 15.3599C7.74955 15.3737 7.74955 15.3876 7.74955 15.4014C7.74955 15.4153 7.74955 15.4292 7.74955 15.4431C7.74955 15.457 7.74955 15.4709 7.74955 15.4849C7.74955 15.4989 7.74955 15.5129 7.74955 15.5269C7.74955 15.5409 7.74955 15.555 7.74955 15.5691C7.74955 15.5832 7.74955 15.5973 7.74955 15.6114C7.74955 15.6255 7.74955 15.6397 7.74955 15.6539C7.74955 15.6681 7.74955 15.6823 7.74955 15.6966C7.74955 15.7108 7.74955 15.7251 7.74955 15.7394C7.74955 15.7537 7.74955 15.768 7.74955 15.7824C7.74955 15.7968 7.74955 15.8112 7.74955 15.8256C7.74955 15.84 7.74955 15.8545 7.74955 15.8689C7.74955 15.8834 7.74955 15.8979 7.74955 15.9125C7.74955 15.927 7.74955 15.9415 7.74955 15.9561C7.74955 15.9707 7.74955 15.9854 7.74955 16H9.24955C9.24955 15.9854 9.24955 15.9707 9.24955 15.9561C9.24955 15.9415 9.24955 15.927 9.24955 15.9125C9.24955 15.8979 9.24955 15.8834 9.24955 15.8689C9.24955 15.8545 9.24955 15.84 9.24955 15.8256C9.24955 15.8112 9.24955 15.7968 9.24955 15.7824C9.24955 15.768 9.24955 15.7537 9.24955 15.7394C9.24955 15.7251 9.24955 15.7108 9.24955 15.6966C9.24955 15.6823 9.24955 15.6681 9.24955 15.6539C9.24955 15.6397 9.24955 15.6255 9.24955 15.6114C9.24955 15.5973 9.24955 15.5832 9.24955 15.5691C9.24955 15.555 9.24955 15.5409 9.24955 15.5269C9.24955 15.5129 9.24955 15.4989 9.24955 15.4849C9.24955 15.4709 9.24955 15.457 9.24955 15.4431C9.24955 15.4292 9.24955 15.4153 9.24955 15.4014C9.24955 15.3876 9.24955 15.3737 9.24955 15.3599C9.24955 15.3461 9.24955 15.3324 9.24955 15.3186C9.24955 15.3049 9.24955 15.2912 9.24955 15.2775C9.24955 15.2638 9.24955 15.2501 9.24955 15.2365C9.24955 15.2228 9.24955 15.2092 9.24955 15.1956C9.24955 15.1821 9.24955 15.1685 9.24955 15.155C9.24955 15.1415 9.24955 15.128 9.24955 15.1145C9.24955 15.101 9.24955 15.0876 9.24955 15.0742C9.24955 15.0607 9.24955 15.0473 9.24955 15.034C9.24955 15.0206 9.24955 15.0073 9.24955 14.994C9.24955 14.9807 9.24955 14.9674 9.24955 14.9541C9.24955 14.9409 9.24955 14.9277 9.24955 14.9145C9.24955 14.9013 9.24955 14.8881 9.24955 14.8749C9.24955 14.8618 9.24955 14.8487 9.24955 14.8356C9.24955 14.8225 9.24955 14.8094 9.24955 14.7964C9.24955 14.7834 9.24955 14.7704 9.24955 14.7574C9.24955 14.7444 9.24955 14.7314 9.24955 14.7185C9.24955 14.7056 9.24955 14.6927 9.24955 14.6798C9.24955 14.6669 9.24955 14.6541 9.24955 14.6413C9.24955 14.6284 9.24955 14.6157 9.24955 14.6029C9.24955 14.5901 9.24955 14.5774 9.24955 14.5647C9.24955 14.5519 9.24955 14.5393 9.24955 14.5266C9.24955 14.5139 9.24955 14.5013 9.24955 14.4887C9.24955 14.4761 9.24955 14.4635 9.24955 14.451C9.24955 14.4384 9.24955 14.4259 9.24955 14.4134C9.24955 14.4009 9.24955 14.3884 9.24955 14.3759C9.24955 14.3635 9.24955 14.3511 9.24955 14.3387C9.24955 14.3263 9.24955 14.3139 9.24955 14.3016C9.24955 14.2892 9.24955 14.2769 9.24955 14.2646C9.24955 14.2523 9.24955 14.2401 9.24955 14.2278C9.24955 14.2156 9.24955 14.2034 9.24955 14.1912C9.24955 14.179 9.24955 14.1668 9.24955 14.1547C9.24955 14.1426 9.24955 14.1305 9.24955 14.1184C9.24955 14.1063 9.24955 14.0942 9.24955 14.0822C9.24955 14.0702 9.24955 14.0582 9.24955 14.0462C9.24955 14.0342 9.24955 14.0223 9.24955 14.0103C9.24955 13.9984 9.24955 13.9865 9.24955 13.9746C9.24955 13.9627 9.24955 13.9509 9.24955 13.9391C9.24955 13.9272 9.24955 13.9155 9.24955 13.9037C9.24955 13.8919 9.24955 13.8802 9.24955 13.8684C9.24955 13.8567 9.24955 13.845 9.24955 13.8333C9.24955 13.8217 9.24955 13.81 9.24955 13.7984C9.24955 13.7868 9.24955 13.7752 9.24955 13.7636C9.24955 13.7521 9.24955 13.7405 9.24955 13.729C9.24955 13.7175 9.24955 13.706 9.24955 13.6945C9.24955 13.6831 9.24955 13.6716 9.24955 13.6602C9.24955 13.6488 9.24955 13.6374 9.24955 13.626C9.24955 13.6147 9.24955 13.6033 9.24955 13.592C9.24955 13.5807 9.24955 13.5694 9.24955 13.5581C9.24955 13.5469 9.24955 13.5356 9.24955 13.5244C9.24955 13.5132 9.24955 13.502 9.24955 13.4908C9.24955 13.4797 9.24955 13.4685 9.24955 13.4574C9.24955 13.4463 9.24955 13.4352 9.24955 13.4242C9.24955 13.4131 9.24955 13.402 9.24955 13.391C9.24955 13.38 9.24955 13.369 9.24955 13.3581C9.24955 13.3471 9.24955 13.3361 9.24955 13.3252C9.24955 13.3143 9.24955 13.3034 9.24955 13.2926C9.24955 13.2817 9.24955 13.2708 9.24955 13.26C9.24955 13.2492 9.24955 13.2384 9.24955 13.2276C9.24955 13.2169 9.24955 13.2061 9.24955 13.1954C9.24955 13.1847 9.24955 13.174 9.24955 13.1633C9.24955 13.1527 9.24955 13.142 9.24955 13.1314C9.24955 13.1208 9.24955 13.1102 9.24955 13.0996C9.24955 13.089 9.24955 13.0785 9.24955 13.0679C9.24955 13.0574 9.24955 13.0469 9.24955 13.0364C9.24955 13.026 9.24955 13.0155 9.24955 13.0051C9.24955 12.9947 9.24955 12.9842 9.24955 12.9739C9.24955 12.9635 9.24955 12.9531 9.24955 12.9428C9.24955 12.9325 9.24955 12.9222 9.24955 12.9119C9.24955 12.9016 9.24955 12.8913 9.24955 12.8811C9.24955 12.8709 9.24955 12.8606 9.24955 12.8505C9.24955 12.8403 9.24955 12.8301 9.24955 12.82C9.24955 12.8098 9.24955 12.7997 9.24955 12.7896C9.24955 12.7795 9.24955 12.7695 9.24955 12.7594C9.24955 12.7494 9.24955 12.7393 9.24955 12.7293C9.24955 12.7193 9.24955 12.7094 9.24955 12.6994C9.24955 12.6895 9.24955 12.6795 9.24955 12.6696C9.24955 12.6597 9.24955 12.6498 9.24955 12.64C9.24955 12.6301 9.24955 12.6203 9.24955 12.6105C9.24955 12.6007 9.24955 12.5909 9.24955 12.5811C9.24955 12.5714 9.24955 12.5616 9.24955 12.5519C9.24955 12.5422 9.24955 12.5325 9.24955 12.5228C9.24955 12.5132 9.24955 12.5035 9.24955 12.4939C9.24955 12.4843 9.24955 12.4747 9.24955 12.4651C9.24955 12.4555 9.24955 12.446 9.24955 12.4364C9.24955 12.4269 9.24955 12.4174 9.24955 12.4079C9.24955 12.3984 9.24955 12.3889 9.24955 12.3795C9.24955 12.3701 9.24955 12.3607 9.24955 12.3513C9.24955 12.3419 9.24955 12.3325 9.24955 12.3231C9.24955 12.3138 9.24955 12.3045 9.24955 12.2952C9.24955 12.2859 9.24955 12.2766 9.24955 12.2673C9.24955 12.2581 9.24955 12.2488 9.24955 12.2396C9.24955 12.2304 9.24955 12.2212 9.24955 12.2121C9.24955 12.2029 9.24955 12.1938 9.24955 12.1846C9.24955 12.1755 9.24955 12.1664 9.24955 12.1573C9.24955 12.1483 9.24955 12.1392 9.24955 12.1302C9.24955 12.1212 9.24955 12.1122 9.24955 12.1032C9.24955 12.0942 9.24955 12.0852 9.24955 12.0763C9.24955 12.0673 9.24955 12.0584 9.24955 12.0495C9.24955 12.0406 9.24955 12.0318 9.24955 12.0229C9.24955 12.0141 9.24955 12.0052 9.24955 11.9964C9.24955 11.9876 9.24955 11.9788 9.24955 11.9701C9.24955 11.9613 9.24955 11.9526 9.24955 11.9438C9.24955 11.9351 9.24955 11.9264 9.24955 11.9177C9.24955 11.9091 9.24955 11.9004 9.24955 11.8918C9.24955 11.8832 9.24955 11.8746 9.24955 11.866C9.24955 11.8574 9.24955 11.8488 9.24955 11.8403C9.24955 11.8317 9.24955 11.8232 9.24955 11.8147C9.24955 11.8062 9.24955 11.7977 9.24955 11.7893C9.24955 11.7808 9.24955 11.7724 9.24955 11.764C9.24955 11.7556 9.24955 11.7472 9.24955 11.7388C9.24955 11.7304 9.24955 11.7221 9.24955 11.7138C9.24955 11.7054 9.24955 11.6971 9.24955 11.6888C9.24955 11.6806 9.24955 11.6723 9.24955 11.6641C9.24955 11.6558 9.24955 11.6476 9.24955 11.6394C9.24955 11.6312 9.24955 11.623 9.24955 11.6149C9.24955 11.6067 9.24955 11.5986 9.24955 11.5905C9.24955 11.5824 9.24955 11.5743 9.24955 11.5662C9.24955 11.5581 9.24955 11.5501 9.24955 11.5421C9.24955 11.534 9.24955 11.526 9.24955 11.5181C9.24955 11.5101 9.24955 11.5021 9.24955 11.4942C9.24955 11.4862 9.24955 11.4783 9.24955 11.4704C9.24955 11.4625 9.24955 11.4546 9.24955 11.4468C9.24955 11.4389 9.24955 11.4311 9.24955 11.4233C9.24955 11.4154 9.24955 11.4076 9.24955 11.3999C9.24955 11.3921 9.24955 11.3843 9.24955 11.3766C9.24955 11.3689 9.24955 11.3612 9.24955 11.3535C9.24955 11.3458 9.24955 11.3381 9.24955 11.3305C9.24955 11.3228 9.24955 11.3152 9.24955 11.3076C9.24955 11.3 9.24955 11.2924 9.24955 11.2848C9.24955 11.2772 9.24955 11.2697 9.24955 11.2622C9.24955 11.2546 9.24955 11.2471 9.24955 11.2396C9.24955 11.2322 9.24955 11.2247 9.24955 11.2173C9.24955 11.2098 9.24955 11.2024 9.24955 11.195C9.24955 11.1876 9.24955 11.1802 9.24955 11.1728C9.24955 11.1655 9.24955 11.1581 9.24955 11.1508C9.24955 11.1435 9.24955 11.1362 9.24955 11.1289C9.24955 11.1216 9.24955 11.1143 9.24955 11.1071C9.24955 11.0999 9.24955 11.0926 9.24955 11.0854C9.24955 11.0782 9.24955 11.0711 9.24955 11.0639C9.24955 11.0567 9.24955 11.0496 9.24955 11.0425C9.24955 11.0353 9.24955 11.0282 9.24955 11.0212C9.24955 11.0141 9.24955 11.007 9.24955 11C9.24955 10.9929 9.24955 10.9859 9.24955 10.9789C9.24955 10.9719 9.24955 10.9649 9.24955 10.958C9.24955 10.951 9.24955 10.9441 9.24955 10.9371C9.24955 10.9302 9.24955 10.9233 9.24955 10.9164C9.24955 10.9095 9.24955 10.9027 9.24955 10.8958C9.24955 10.889 9.24955 10.8822 9.24955 10.8754C9.24955 10.8685 9.24955 10.8618 9.24955 10.855C9.24955 10.8482 9.24955 10.8415 9.24955 10.8347C9.24955 10.828 9.24955 10.8213 9.24955 10.8146C9.24955 10.8079 9.24955 10.8013 9.24955 10.7946C9.24955 10.788 9.24955 10.7813 9.24955 10.7747C9.24955 10.7681 9.24955 10.7615 9.24955 10.7549C9.24955 10.7484 9.24955 10.7418 9.24955 10.7353C9.24955 10.7287 9.24955 10.7222 9.24955 10.7157C9.24955 10.7092 9.24955 10.7027 9.24955 10.6963C9.24955 10.6898 9.24955 10.6834 9.24955 10.677C9.24955 10.6705 9.24955 10.6641 9.24955 10.6578C9.24955 10.6514 9.24955 10.645 9.24955 10.6387C9.24955 10.6323 9.24955 10.626 9.24955 10.6197C9.24955 10.6134 9.24955 10.6071 9.24955 10.6008C9.24955 10.5945 9.24955 10.5883 9.24955 10.582C9.24955 10.5758 9.24955 10.5696 9.24955 10.5634C9.24955 10.5572 9.24955 10.551 9.24955 10.5449C9.24955 10.5387 9.24955 10.5326 9.24955 10.5264C9.24955 10.5203 9.24955 10.5142 9.24955 10.5081C9.24955 10.5021 9.24955 10.496 9.24955 10.4899C9.24955 10.4839 9.24955 10.4779 9.24955 10.4718C9.24955 10.4658 9.24955 10.4598 9.24955 10.4539C9.24955 10.4479 9.24955 10.4419 9.24955 10.436C9.24955 10.4301 9.24955 10.4241 9.24955 10.4182C9.24955 10.4123 9.24955 10.4064 9.24955 10.4006C9.24955 10.3947 9.24955 10.3889 9.24955 10.383C9.24955 10.3772 9.24955 10.3714 9.24955 10.3656C9.24955 10.3598 9.24955 10.354 9.24955 10.3483C9.24955 10.3425 9.24955 10.3368 9.24955 10.3311C9.24955 10.3253 9.24955 10.3196 9.24955 10.3139C9.24955 10.3083 9.24955 10.3026 9.24955 10.2969C9.24955 10.2913 9.24955 10.2857 9.24955 10.28C9.24955 10.2744 9.24955 10.2688 9.24955 10.2632C9.24955 10.2577 9.24955 10.2521 9.24955 10.2466C9.24955 10.241 9.24955 10.2355 9.24955 10.23C9.24955 10.2245 9.24955 10.219 9.24955 10.2135C9.24955 10.208 9.24955 10.2026 9.24955 10.1971C9.24955 10.1917 9.24955 10.1863 9.24955 10.1809C9.24955 10.1755 9.24955 10.1701 9.24955 10.1647C9.24955 10.1593 9.24955 10.154 9.24955 10.1486C9.24955 10.1433 9.24955 10.138 9.24955 10.1327C9.24955 10.1274 9.24955 10.1221 9.24955 10.1168C9.24955 10.1116 9.24955 10.1063 9.24955 10.1011C9.24955 10.0959 9.24955 10.0906 9.24955 10.0854C9.24955 10.0802 9.24955 10.0751 9.24955 10.0699C9.24955 10.0647 9.24955 10.0596 9.24955 10.0545C9.24955 10.0493 9.24955 10.0442 9.24955 10.0391C9.24955 10.034 9.24955 10.0289 9.24955 10.0239C9.24955 10.0188 9.24955 10.0138 9.24955 10.0087C9.24955 10.0037 9.24955 9.9987 9.24955 9.99371C9.24955 9.98871 9.24955 9.98373 9.24955 9.97877C9.24955 9.97381 9.24955 9.96886 9.24955 9.96393C9.24955 9.959 9.24955 9.95409 9.24955 9.94919C9.24955 9.9443 9.24955 9.93942 9.24955 9.93456C9.24955 9.92969 9.24955 9.92485 9.24955 9.92002C9.24955 9.91519 9.24955 9.91037 9.24955 9.90558C9.24955 9.90078 9.24955 9.896 9.24955 9.89123C9.24955 9.88647 9.24955 9.88172 9.24955 9.87699C9.24955 9.87226 9.24955 9.86754 9.24955 9.86284C9.24955 9.85814 9.24955 9.85346 9.24955 9.84879C9.24955 9.84412 9.24955 9.83947 9.24955 9.83484C9.24955 9.8302 9.24955 9.82559 9.24955 9.82098C9.24955 9.81638 9.24955 9.81179 9.24955 9.80722C9.24955 9.80265 9.24955 9.7981 9.24955 9.79356C9.24955 9.78902 9.24955 9.7845 9.24955 9.77999C9.24955 9.77548 9.24955 9.77099 9.24955 9.76652C9.24955 9.76204 9.24955 9.75758 9.24955 9.75314C9.24955 9.74869 9.24955 9.74427 9.24955 9.73985C9.24955 9.73544 9.24955 9.73104 9.24955 9.72666C9.24955 9.72228 9.24955 9.71792 9.24955 9.71357C9.24955 9.70922 9.24955 9.70488 9.24955 9.70057C9.24955 9.69625 9.24955 9.69194 9.24955 9.68766C9.24955 9.68337 9.24955 9.6791 9.24955 9.67484C9.24955 9.67058 9.24955 9.66634 9.24955 9.66212C9.24955 9.65789 9.24955 9.65368 9.24955 9.64948C9.24955 9.64529 9.24955 9.64111 9.24955 9.63694C9.24955 9.63278 9.24955 9.62863 9.24955 9.6245C9.24955 9.62036 9.24955 9.61624 9.24955 9.61214C9.24955 9.60804 9.24955 9.60395 9.24955 9.59987C9.24955 9.5958 9.24955 9.59174 9.24955 9.5877C9.24955 9.58365 9.24955 9.57963 9.24955 9.57561C9.24955 9.5716 9.24955 9.5676 9.24955 9.56362C9.24955 9.55963 9.24955 9.55566 9.24955 9.55171C9.24955 9.54776 9.24955 9.54382 9.24955 9.53989C9.24955 9.53597 9.24955 9.53206 9.24955 9.52817C9.24955 9.52427 9.24955 9.52039 9.24955 9.51653C9.24955 9.51266 9.24955 9.50881 9.24955 9.50497C9.24955 9.50114 9.24955 9.49732 9.24955 9.49351C9.24955 9.4897 9.24955 9.48591 9.24955 9.48214C9.24955 9.47836 9.24955 9.4746 9.24955 9.47085C9.24955 9.4671 9.24955 9.46336 9.24955 9.45964C9.24955 9.45593 9.24955 9.45222 9.24955 9.44853C9.24955 9.44484 9.24955 9.44116 9.24955 9.4375C9.24955 9.43384 9.24955 9.43019 9.24955 9.42656C9.24955 9.42292 9.24955 9.4193 9.24955 9.4157C9.24955 9.41209 9.24955 9.4085 9.24955 9.40493C9.24955 9.40135 9.24955 9.39779 9.24955 9.39424C9.24955 9.39069 9.24955 9.38715 9.24955 9.38363C9.24955 9.38011 9.24955 9.37661 9.24955 9.37311C9.24955 9.36962 9.24955 9.36614 9.24955 9.36268C9.24955 9.35921 9.24955 9.35576 9.24955 9.35233C9.24955 9.34889 9.24955 9.34547 9.24955 9.34206C9.24955 9.33865 9.24955 9.33525 9.24955 9.33187C9.24955 9.32849 9.24955 9.32512 9.24955 9.32177C9.24955 9.31841 9.24955 9.31507 9.24955 9.31175C9.24955 9.30842 9.24955 9.30511 9.24955 9.30181C9.24955 9.29851 9.24955 9.29522 9.24955 9.29195C9.24955 9.28868 9.24955 9.28542 9.24955 9.28217C9.24955 9.27893 9.24955 9.27569 9.24955 9.27248C9.24955 9.26926 9.24955 9.26605 9.24955 9.26286C9.24955 9.25967 9.24955 9.25649 9.24955 9.25332C9.24955 9.25016 9.24955 9.24701 9.24955 9.24387C9.24955 9.24073 9.24955 9.2376 9.24955 9.23449C9.24955 9.23138 9.24955 9.22828 9.24955 9.2252C9.24955 9.22211 9.24955 9.21904 9.24955 9.21598C9.24955 9.21292 9.24955 9.20987 9.24955 9.20684C9.24955 9.2038 9.24955 9.20078 9.24955 9.19777C9.24955 9.19477 9.24955 9.19177 9.24955 9.18879C9.24955 9.18581 9.24955 9.18284 9.24955 9.17988C9.24955 9.17693 9.24955 9.17398 9.24955 9.17105C9.24955 9.16812 9.24955 9.16521 9.24955 9.1623C9.24955 9.1594 9.24955 9.1565 9.24955 9.15363C9.24955 9.15075 9.24955 9.14788 9.24955 9.14503C9.24955 9.14217 9.24955 9.13933 9.24955 9.1365C9.24955 9.13367 9.24955 9.13086 9.24955 9.12805C9.24955 9.12525 9.24955 9.12246 9.24955 9.11968C9.24955 9.1169 9.24955 9.11413 9.24955 9.11138C9.24955 9.10862 9.24955 9.10588 9.24955 9.10315C9.24955 9.10042 9.24955 9.09771 9.24955 9.095C9.24955 9.0923 9.24955 9.08961 9.24955 9.08693C9.24955 9.08425 9.24955 9.08158 9.24955 9.07892C9.24955 9.07627 9.24955 9.07362 9.24955 9.07099C9.24955 9.06836 9.24955 9.06574 9.24955 9.06314C9.24955 9.06053 9.24955 9.05793 9.24955 9.05535C9.24955 9.05277 9.24955 9.0502 9.24955 9.04764C9.24955 9.04508 9.24955 9.04253 9.24955 9.04C9.24955 9.03746 9.24955 9.03494 9.24955 9.03243C9.24955 9.02991 9.24955 9.02741 9.24955 9.02493C9.24955 9.02244 9.24955 9.01996 9.24955 9.0175C9.24955 9.01503 9.24955 9.01258 9.24955 9.01014C9.24955 9.0077 9.24955 9.00527 9.24955 9.00285C9.24955 9.00044 9.24955 8.99803 9.24955 8.99564C9.24955 8.99324 9.24955 8.99086 9.24955 8.98849C9.24955 8.98612 9.24955 8.98376 9.24955 8.98141C9.24955 8.97906 9.24955 8.97672 9.24955 8.9744C9.24955 8.97207 9.24955 8.96976 9.24955 8.96745C9.24955 8.96515 9.24955 8.96286 9.24955 8.96058C9.24955 8.9583 9.24955 8.95603 9.24955 8.95377C9.24955 8.95152 9.24955 8.94927 9.24955 8.94703C9.24955 8.9448 9.24955 8.94258 9.24955 8.94036C9.24955 8.93815 9.24955 8.93595 9.24955 8.93376C9.24955 8.93157 9.24955 8.92939 9.24955 8.92722C9.24955 8.92505 9.24955 8.92289 9.24955 8.92075C9.24955 8.9186 9.24955 8.91646 9.24955 8.91434C9.24955 8.91221 9.24955 8.9101 9.24955 8.908C9.24955 8.90589 9.24955 8.9038 9.24955 8.90172C9.24955 8.89964 9.24955 8.89757 9.24955 8.89551C9.24955 8.89345 9.24955 8.8914 9.24955 8.88936C9.24955 8.88732 9.24955 8.88529 9.24955 8.88328C9.24955 8.88126 9.24955 8.87925 9.24955 8.87726C9.24955 8.87526 9.24955 8.87327 9.24955 8.8713C9.24955 8.86932 9.24955 8.86736 9.24955 8.86541C9.24955 8.86345 9.24955 8.86151 9.24955 8.85958C9.24955 8.85764 9.24955 8.85572 9.24955 8.85381C9.24955 8.85189 9.24955 8.84999 9.24955 8.8481C9.24955 8.84621 9.24955 8.84433 9.24955 8.84246C9.24955 8.84058 9.24955 8.83872 9.24955 8.83687C9.24955 8.83502 9.24955 8.83318 9.24955 8.83135C9.24955 8.82952 9.24955 8.8277 9.24955 8.82589C9.24955 8.82408 9.24955 8.82228 9.24955 8.82049C9.24955 8.8187 9.24955 8.81692 9.24955 8.81515C9.24955 8.81338 9.24955 8.81161 9.24955 8.80986C9.24955 8.80811 9.24955 8.80637 9.24955 8.80464C9.24955 8.80291 9.24955 8.80119 9.24955 8.79948C9.24955 8.79777 9.24955 8.79607 9.24955 8.79437C9.24955 8.79268 9.24955 8.791 9.24955 8.78933C9.24955 8.78766 9.24955 8.78599 9.24955 8.78434C9.24955 8.78269 9.24955 8.78104 9.24955 8.77941C9.24955 8.77777 9.24955 8.77615 9.24955 8.77454C9.24955 8.77292 9.24955 8.77131 9.24955 8.76972C9.24955 8.76812 9.24955 8.76654 9.24955 8.76496C9.24955 8.76338 9.24955 8.76181 9.24955 8.76026C9.24955 8.7587 9.24955 8.75715 9.24955 8.75561C9.24955 8.75407 9.24955 8.75254 9.24955 8.75102C9.24955 8.7495 9.24955 8.74798 9.24955 8.74648C9.24955 8.74498 9.24955 8.74348 9.24955 8.742C9.24955 8.74051 9.24955 8.73904 9.24955 8.73757C9.24955 8.73611 9.24955 8.73465 9.24955 8.7332C9.24955 8.73175 9.24955 8.73031 9.24955 8.72888C9.24955 8.72745 9.24955 8.72603 9.24955 8.72462C9.24955 8.7232 9.24955 8.7218 9.24955 8.72041C9.24955 8.71901 9.24955 8.71762 9.24955 8.71625C9.24955 8.71487 9.24955 8.7135 9.24955 8.71214C9.24955 8.71078 9.24955 8.70943 9.24955 8.70809C9.24955 8.70675 9.24955 8.70541 9.24955 8.70409C9.24955 8.70276 9.24955 8.70144 9.24955 8.70014C9.24955 8.69883 9.24955 8.69753 9.24955 8.69624C9.24955 8.69495 9.24955 8.69366 9.24955 8.69239C9.24955 8.69112 9.24955 8.68985 9.24955 8.68859C9.24955 8.68734 9.24955 8.68609 9.24955 8.68485C9.24955 8.68361 9.24955 8.68237 9.24955 8.68115C9.24955 8.67993 9.24955 8.67871 9.24955 8.6775C9.24955 8.67629 9.24955 8.6751 9.24955 8.6739C9.24955 8.67271 9.24955 8.67153 9.24955 8.67036C9.24955 8.66918 9.24955 8.66801 9.24955 8.66685C9.24955 8.6657 9.24955 8.66455 9.24955 8.6634C9.24955 8.66226 9.24955 8.66113 9.24955 8.66C9.24955 8.65887 9.24955 8.65775 9.24955 8.65664C9.24955 8.65553 9.24955 8.65443 9.24955 8.65333C9.24955 8.65224 9.24955 8.65115 9.24955 8.65007C9.24955 8.64899 9.24955 8.64792 9.24955 8.64685C9.24955 8.64579 9.24955 8.64473 9.24955 8.64369C9.24955 8.64264 9.24955 8.6416 9.24955 8.64056C9.24955 8.63953 9.24955 8.6385 9.24955 8.63748C9.24955 8.63647 9.24955 8.63545 9.24955 8.63445C9.24955 8.63345 9.24955 8.63245 9.24955 8.63146C9.24955 8.63048 9.24955 8.62949 9.24955 8.62852C9.24955 8.62755 9.24955 8.62658 9.24955 8.62562C9.24955 8.62466 9.24955 8.62371 9.24955 8.62277C9.24955 8.62182 9.24955 8.62089 9.24955 8.61996C9.24955 8.61903 9.24955 8.6181 9.24955 8.61719C9.24955 8.61627 9.24955 8.61536 9.24955 8.61446C9.24955 8.61356 9.24955 8.61267 9.24955 8.61178C9.24955 8.61089 9.24955 8.61001 9.24955 8.60914C9.24955 8.60827 9.24955 8.6074 9.24955 8.60654C9.24955 8.60568 9.24955 8.60483 9.24955 8.60398C9.24955 8.60314 9.24955 8.6023 9.24955 8.60147C9.24955 8.60064 9.24955 8.59981 9.24955 8.59899C9.24955 8.59818 9.24955 8.59736 9.24955 8.59656C9.24955 8.59575 9.24955 8.59496 9.24955 8.59417C9.24955 8.59337 9.24955 8.59259 9.24955 8.59181C9.24955 8.59103 9.24955 8.59026 9.24955 8.5895C9.24955 8.58873 9.24955 8.58797 9.24955 8.58722C9.24955 8.58647 9.24955 8.58572 9.24955 8.58499C9.24955 8.58425 9.24955 8.58351 9.24955 8.58279C9.24955 8.58206 9.24955 8.58134 9.24955 8.58063C9.24955 8.57991 9.24955 8.57921 9.24955 8.57851C9.24955 8.57781 9.24955 8.57711 9.24955 8.57642C9.24955 8.57573 9.24955 8.57505 9.24955 8.57438C9.24955 8.5737 9.24955 8.57303 9.24955 8.57237C9.24955 8.5717 9.24955 8.57104 9.24955 8.57039C9.24955 8.56974 9.24955 8.56909 9.24955 8.56845C9.24955 8.56781 9.24955 8.56718 9.24955 8.56655C9.24955 8.56593 9.24955 8.5653 9.24955 8.56469C9.24955 8.56407 9.24955 8.56346 9.24955 8.56286C9.24955 8.56225 9.24955 8.56165 9.24955 8.56106C9.24955 8.56047 9.24955 8.55988 9.24955 8.5593C9.24955 8.55872 9.24955 8.55814 9.24955 8.55757C9.24955 8.557 9.24955 8.55644 9.24955 8.55588C9.24955 8.55532 9.24955 8.55477 9.24955 8.55422C9.24955 8.55367 9.24955 8.55313 9.24955 8.55259C9.24955 8.55206 9.24955 8.55153 9.24955 8.551C9.24955 8.55047 9.24955 8.54995 9.24955 8.54944C9.24955 8.54892 9.24955 8.54841 9.24955 8.54791C9.24955 8.54741 9.24955 8.54691 9.24955 8.54641C9.24955 8.54592 9.24955 8.54543 9.24955 8.54495C9.24955 8.54446 9.24955 8.54399 9.24955 8.54351C9.24955 8.54304 9.24955 8.54257 9.24955 8.54211C9.24955 8.54165 9.24955 8.54119 9.24955 8.54074C9.24955 8.54028 9.24955 8.53984 9.24955 8.53939C9.24955 8.53895 9.24955 8.53851 9.24955 8.53808C9.24955 8.53765 9.24955 8.53722 9.24955 8.5368C9.24955 8.53637 9.24955 8.53596 9.24955 8.53554C9.24955 8.53513 9.24955 8.53472 9.24955 8.53432C9.24955 8.53391 9.24955 8.53351 9.24955 8.53312C9.24955 8.53273 9.24955 8.53234 9.24955 8.53195C9.24955 8.53157 9.24955 8.53119 9.24955 8.53081C9.24955 8.53043 9.24955 8.53006 9.24955 8.5297C9.24955 8.52933 9.24955 8.52897 9.24955 8.52861C9.24955 8.52825 9.24955 8.5279 9.24955 8.52755C9.24955 8.5272 9.24955 8.52686 9.24955 8.52652C9.24955 8.52618 9.24955 8.52584 9.24955 8.52551C9.24955 8.52518 9.24955 8.52485 9.24955 8.52453C9.24955 8.52421 9.24955 8.52389 9.24955 8.52357C9.24955 8.52326 9.24955 8.52295 9.24955 8.52264C9.24955 8.52234 9.24955 8.52204 9.24955 8.52174C9.24955 8.52144 9.24955 8.52115 9.24955 8.52086C9.24955 8.52057 9.24955 8.52028 9.24955 8.52C9.24955 8.51972 9.24955 8.51944 9.24955 8.51917C9.24955 8.51889 9.24955 8.51862 9.24955 8.51836C9.24955 8.51809 9.24955 8.51783 9.24955 8.51757C9.24955 8.51731 9.24955 8.51706 9.24955 8.51681C9.24955 8.51656 9.24955 8.51631 9.24955 8.51607C9.24955 8.51582 9.24955 8.51558 9.24955 8.51535C9.24955 8.51511 9.24955 8.51488 9.24955 8.51465C9.24955 8.51442 9.24955 8.51419 9.24955 8.51397C9.24955 8.51375 9.24955 8.51353 9.24955 8.51332C9.24955 8.5131 9.24955 8.51289 9.24955 8.51268C9.24955 8.51248 9.24955 8.51227 9.24955 8.51207C9.24955 8.51187 9.24955 8.51167 9.24955 8.51148C9.24955 8.51128 9.24955 8.51109 9.24955 8.5109C9.24955 8.51071 9.24955 8.51053 9.24955 8.51035C9.24955 8.51017 9.24955 8.50999 9.24955 8.50981C9.24955 8.50964 9.24955 8.50947 9.24955 8.5093C9.24955 8.50913 9.24955 8.50896 9.24955 8.5088C9.24955 8.50864 9.24955 8.50848 9.24955 8.50832C9.24955 8.50816 9.24955 8.50801 9.24955 8.50786C9.24955 8.50771 9.24955 8.50756 9.24955 8.50741C9.24955 8.50727 9.24955 8.50712 9.24955 8.50698C9.24955 8.50685 9.24955 8.50671 9.24955 8.50657C9.24955 8.50644 9.24955 8.50631 9.24955 8.50618C9.24955 8.50605 9.24955 8.50592 9.24955 8.5058C9.24955 8.50568 9.24955 8.50556 9.24955 8.50544C9.24955 8.50532 9.24955 8.50521 9.24955 8.50509C9.24955 8.50498 9.24955 8.50487 9.24955 8.50476C9.24955 8.50465 9.24955 8.50455 9.24955 8.50444C9.24955 8.50434 9.24955 8.50424 9.24955 8.50414C9.24955 8.50404 9.24955 8.50395 9.24955 8.50385C9.24955 8.50376 9.24955 8.50367 9.24955 8.50358C9.24955 8.50349 9.24955 8.5034 9.24955 8.50331C9.24955 8.50323 9.24955 8.50315 9.24955 8.50307C9.24955 8.50299 9.24955 8.50291 9.24955 8.50283C9.24955 8.50275 9.24955 8.50268 9.24955 8.50261C9.24955 8.50253 9.24955 8.50246 9.24955 8.5024C9.24955 8.50233 9.24955 8.50226 9.24955 8.5022C9.24955 8.50213 9.24955 8.50207 9.24955 8.50201C9.24955 8.50195 9.24955 8.50189 9.24955 8.50183C9.24955 8.50177 9.24955 8.50172 9.24955 8.50166C9.24955 8.50161 9.24955 8.50156 9.24955 8.50151C9.24955 8.50146 9.24955 8.50141 9.24955 8.50136C9.24955 8.50132 9.24955 8.50127 9.24955 8.50123C9.24955 8.50118 9.24955 8.50114 9.24955 8.5011C9.24955 8.50106 9.24955 8.50102 9.24955 8.50098C9.24955 8.50094 9.24955 8.50091 9.24955 8.50087C9.24955 8.50084 9.24955 8.5008 9.24955 8.50077C9.24955 8.50074 9.24955 8.50071 9.24955 8.50068C9.24955 8.50065 9.24955 8.50062 9.24955 8.5006C9.24955 8.50057 9.24955 8.50054 9.24955 8.50052C9.24955 8.50049 9.24955 8.50047 9.24955 8.50045C9.24955 8.50042 9.24955 8.5004 9.24955 8.50038C9.24955 8.50036 9.24955 8.50034 9.24955 8.50033C9.24955 8.50031 9.24955 8.50029 9.24955 8.50027C9.24955 8.50026 9.24955 8.50024 9.24955 8.50023C9.24955 8.50021 9.24955 8.5002 9.24955 8.50019C9.24955 8.50018 9.24955 8.50016 9.24955 8.50015C9.24955 8.50014 9.24955 8.50013 9.24955 8.50012C9.24955 8.50011 9.24955 8.5001 9.24955 8.5001C9.24955 8.50009 9.24955 8.50008 9.24955 8.50007C9.24955 8.50007 9.24955 8.50006 9.24955 8.50006C9.24955 8.50005 9.24955 8.50005 9.24955 8.50004C9.24955 8.50004 9.24955 8.50003 9.24955 8.50003C9.24955 8.50003 9.24955 8.50002 9.24955 8.50002C9.24955 8.50002 9.24955 8.50001 9.24955 8.50001C9.24955 8.50001 9.24955 8.50001 9.24955 8.50001C9.24955 8.50001 9.24955 8.5 9.24955 8.5C9.24955 8.5 9.24955 8.5 9.24955 8.5C9.24955 8.5 9.24955 8.5 9.24955 8.5C9.24955 8.5 9.24955 8.5 9.24955 8.5C9.24955 8.5 8.49955 8.5 8.49955 8.5ZM9.24955 8.5V1H7.74955V8.5H9.24955Z" fill="white"/>
</svg>
