<svg width="20" height="20" viewBox="0 0 20 20" fill="none" xmlns="http://www.w3.org/2000/svg">
<g clip-path="url(#clip0_1278_13468)">
<path d="M5.83333 17.5002V20.0002H2.5V17.5002H5.83333ZM14.1667 17.5002V20.0002H17.5V17.5002H14.1667ZM19.3508 9.16683C19.1942 8.5685 19.0175 7.976 18.8017 7.391L17.015 2.47933C16.839 1.99767 16.5195 1.5816 16.0995 1.28729C15.6796 0.992972 15.1795 0.834582 14.6667 0.833496H5.33333C4.82053 0.834582 4.3204 0.992972 3.90046 1.28729C3.48053 1.5816 3.16099 1.99767 2.985 2.47933L1.19833 7.391C0.985833 7.976 0.805833 8.5685 0.649167 9.16683H19.3508ZM20 14.1935V15.8335H0V14.1935C0.000946898 13.0674 0.0974037 11.9433 0.288333 10.8335H19.7117C19.9026 11.9433 19.9991 13.0674 20 14.1935ZM4.16667 12.5002C3.94565 12.5002 3.73369 12.588 3.57741 12.7442C3.42113 12.9005 3.33333 13.1125 3.33333 13.3335C3.33333 13.5545 3.42113 13.7665 3.57741 13.9228C3.73369 14.079 3.94565 14.1668 4.16667 14.1668C4.38768 14.1668 4.59964 14.079 4.75592 13.9228C4.9122 13.7665 5 13.5545 5 13.3335C5 13.1125 4.9122 12.9005 4.75592 12.7442C4.59964 12.588 4.38768 12.5002 4.16667 12.5002ZM15.8333 12.5002C15.6123 12.5002 15.4004 12.588 15.2441 12.7442C15.0878 12.9005 15 13.1125 15 13.3335C15 13.5545 15.0878 13.7665 15.2441 13.9228C15.4004 14.079 15.6123 14.1668 15.8333 14.1668C16.0543 14.1668 16.2663 14.079 16.4226 13.9228C16.5789 13.7665 16.6667 13.5545 16.6667 13.3335C16.6667 13.1125 16.5789 12.9005 16.4226 12.7442C16.2663 12.588 16.0543 12.5002 15.8333 12.5002Z" fill="#8E8E8E"/>
</g>
<defs>
<clipPath id="clip0_1278_13468">
<rect width="20" height="20" fill="white"/>
</clipPath>
</defs>
</svg>
