<svg width="76" height="76" viewBox="0 0 76 76" fill="none" xmlns="http://www.w3.org/2000/svg">
<g filter="url(#filter0_d_702_11391)">
<circle cx="38" cy="38" r="22" fill="#19181D"/>
</g>
<path fill-rule="evenodd" clip-rule="evenodd" d="M28 39.9996C28.0001 37.9038 28.9394 35.9182 30.5596 34.5887C32.1798 33.2592 34.3104 32.7256 36.366 33.1346L36.561 33.1766C39.285 33.8002 41.3771 35.9842 41.8831 38.7325C42.3892 41.4807 41.2122 44.2667 38.889 45.8196C38.8223 45.8636 38.7557 45.9066 38.689 45.9486C36.5301 47.2873 33.8155 47.3514 31.5958 46.1161C29.3762 44.8807 28 42.5399 28 39.9996Z" fill="black" stroke="white" stroke-width="1.5" stroke-linecap="round" stroke-linejoin="round"/>
<path fill-rule="evenodd" clip-rule="evenodd" d="M31 38.4998C31.4486 36.8814 32.8321 35.6956 34.5 35.4998L31 38.4998Z" fill="black"/>
<path d="M31 38.4998C31.4486 36.8814 32.8321 35.6956 34.5 35.4998" stroke="white" stroke-width="1.5" stroke-linecap="round"/>
<path fill-rule="evenodd" clip-rule="evenodd" d="M46.3287 44.1575C46.9318 44.2047 47.4819 44.5196 47.828 45.0157C48.1741 45.5118 48.2797 46.1369 48.1158 46.7191L48.0993 46.7743C47.8586 47.5441 47.1831 48.0969 46.381 48.1807C45.5788 48.2645 44.8037 47.8631 44.4091 47.1597C44.3979 47.1396 44.387 47.1194 44.3764 47.0993C44.0398 46.448 44.0825 45.6654 44.4879 45.0545C44.8932 44.4436 45.5978 44.1003 46.3287 44.1575Z" stroke="white" stroke-width="1.3" stroke-linecap="round" stroke-linejoin="round"/>
<path d="M50 31C47.2343 31 45 28.7625 45 26C45 28.7657 42.7625 31 40 31C42.7657 31 45 33.2375 45 36C44.9967 33.2375 47.2343 31 50 31Z" fill="white"/>
<defs>
<filter id="filter0_d_702_11391" x="0.2" y="0.2" width="75.6" height="75.6" filterUnits="userSpaceOnUse" color-interpolation-filters="sRGB">
<feFlood flood-opacity="0" result="BackgroundImageFix"/>
<feColorMatrix in="SourceAlpha" type="matrix" values="0 0 0 0 0 0 0 0 0 0 0 0 0 0 0 0 0 0 127 0" result="hardAlpha"/>
<feMorphology radius="4" operator="dilate" in="SourceAlpha" result="effect1_dropShadow_702_11391"/>
<feOffset/>
<feGaussianBlur stdDeviation="5.9"/>
<feComposite in2="hardAlpha" operator="out"/>
<feColorMatrix type="matrix" values="0 0 0 0 0 0 0 0 0 0 0 0 0 0 0 0 0 0 0.02 0"/>
<feBlend mode="normal" in2="BackgroundImageFix" result="effect1_dropShadow_702_11391"/>
<feBlend mode="normal" in="SourceGraphic" in2="effect1_dropShadow_702_11391" result="shape"/>
</filter>
</defs>
</svg>
