<svg width="24" height="24" viewBox="0 0 24 24" fill="none" xmlns="http://www.w3.org/2000/svg">
<path fill-rule="evenodd" clip-rule="evenodd" d="M12 22.8C17.9647 22.8 22.8 17.9647 22.8 12C22.8 6.03532 17.9647 1.2 12 1.2C6.03532 1.2 1.2 6.03532 1.2 12C1.2 17.9647 6.03532 22.8 12 22.8ZM12 24C18.6274 24 24 18.6274 24 12C24 5.37258 18.6274 0 12 0C5.37258 0 0 5.37258 0 12C0 18.6274 5.37258 24 12 24Z" fill="#BEBFC0"/>
<path d="M12.0011 17C11.0121 17.0002 10.0452 16.7071 9.2228 16.1578C8.4004 15.6085 7.75937 14.8276 7.38081 13.9139C7.00224 13.0002 6.90313 11.9948 7.09602 11.0248C7.28892 10.0548 7.76514 9.16379 8.46447 8.46447C9.16379 7.76514 10.0548 7.28892 11.0248 7.09602C11.9948 6.90313 13.0002 7.00224 13.9139 7.38081C14.8276 7.75937 15.6085 8.4004 16.1578 9.2228C16.7071 10.0452 17.0002 11.0121 17 12.0011C16.9986 13.3264 16.4715 14.5971 15.5343 15.5343C14.5971 16.4715 13.3264 16.9986 12.0011 17ZM12.0011 8.36516C11.2819 8.36496 10.5788 8.57802 9.98077 8.97741C9.38272 9.3768 8.91653 9.94458 8.64118 10.6089C8.36583 11.2733 8.29368 12.0044 8.43385 12.7097C8.57402 13.4151 8.92022 14.063 9.42867 14.5716C9.93712 15.0802 10.585 15.4266 11.2903 15.567C11.9956 15.7074 12.7267 15.6354 13.3912 15.3603C14.0556 15.0851 14.6235 14.6191 15.0231 14.0211C15.4226 13.4232 15.6359 12.7202 15.6359 12.0011C15.6351 11.0372 15.2519 10.113 14.5704 9.43138C13.889 8.74973 12.9649 8.36628 12.0011 8.36516Z" fill="#7BDE88"/>
</svg>
