<svg width="24" height="24" viewBox="0 0 24 24" fill="none" xmlns="http://www.w3.org/2000/svg">
<path fill-rule="evenodd" clip-rule="evenodd" d="M2 13.9996C2.00013 11.9038 2.93936 9.91824 4.55956 8.58873C6.17975 7.25923 8.31043 6.72564 10.366 7.13464L10.561 7.17664C13.285 7.80025 15.3771 9.98423 15.8831 12.7325C16.3892 15.4807 15.2122 18.2667 12.889 19.8196C12.8223 19.8636 12.7557 19.9066 12.689 19.9486C10.5301 21.2873 7.81546 21.3514 5.59584 20.1161C3.37621 18.8807 2.00002 16.5399 2 13.9996Z" fill="black" stroke="white" stroke-width="1.5" stroke-linecap="round" stroke-linejoin="round"/>
<path fill-rule="evenodd" clip-rule="evenodd" d="M5 12.4998C5.44862 10.8814 6.83209 9.69559 8.5 9.49976Z" fill="black"/>
<path d="M5 12.4998C5.44862 10.8814 6.83209 9.69559 8.5 9.49976" stroke="white" stroke-width="1.5" stroke-linecap="round"/>
<path fill-rule="evenodd" clip-rule="evenodd" d="M20.3287 18.1575C20.9318 18.2047 21.4819 18.5196 21.828 19.0157C22.1741 19.5118 22.2797 20.1369 22.1158 20.7191L22.0993 20.7743C21.8586 21.5441 21.1831 22.0969 20.381 22.1807C19.5788 22.2645 18.8037 21.8631 18.4091 21.1597C18.3979 21.1396 18.387 21.1194 18.3764 21.0993C18.0398 20.448 18.0825 19.6654 18.4879 19.0545C18.8932 18.4436 19.5978 18.1003 20.3287 18.1575Z" stroke="white" stroke-width="1.3" stroke-linecap="round" stroke-linejoin="round"/>
<path d="M24 5C21.2343 5 19 2.76247 19 0C19 2.76575 16.7625 5 14 5C16.7657 5 19 7.23753 19 10C18.9967 7.23753 21.2343 5 24 5Z" fill="white"/>
</svg>
