<svg width="21" height="20" viewBox="0 0 21 20" fill="none" xmlns="http://www.w3.org/2000/svg">
<path d="M20.6201 10C20.6201 15.5228 16.143 20 10.6201 20C5.09727 20 0.620117 15.5228 0.620117 10C0.620117 4.47715 5.09727 0 10.6201 0C16.143 0 20.6201 4.47715 20.6201 10Z" fill="#F9E000"/>
<path d="M9.8947 2.88191C10.3431 2.62302 10.8956 2.62302 11.344 2.88191L16.4213 5.81329C16.8697 6.07217 17.1459 6.55062 17.1459 7.0684V12.9311C17.1459 13.4489 16.8697 13.9274 16.4213 14.1863L11.344 17.1176C10.8956 17.3765 10.3431 17.3765 9.8947 17.1176L4.81741 14.1863C4.369 13.9274 4.09277 13.4489 4.09277 12.9311V7.0684C4.09277 6.55062 4.369 6.07217 4.81741 5.81329L9.8947 2.88191Z" fill="#1977D1"/>
<path fill-rule="evenodd" clip-rule="evenodd" d="M14.9305 9.23756C15.0754 9.15388 15.0754 8.9447 14.9305 8.86102L11.1805 6.69595C11.0356 6.61228 10.8544 6.71687 10.8544 6.88422V8.21595H7.06818C6.90809 8.21595 6.77832 8.34573 6.77832 8.50581V12.3584C6.77832 12.4629 6.83457 12.5594 6.92555 12.6108L8.22875 13.3474C8.32536 13.402 8.44499 13.3322 8.44499 13.2212V10.1362C8.44499 9.97616 8.57476 9.84639 8.73484 9.84639H10.8544V11.2144C10.8544 11.3817 11.0356 11.4863 11.1805 11.4026L14.9305 9.23756Z" fill="#F9E000"/>
</svg>
