<svg width="36" height="22" viewBox="0 0 36 22" fill="none" xmlns="http://www.w3.org/2000/svg">
<rect y="12.5714" width="9.42871" height="9.42861" rx="2.85336" fill="#8E8E8E"/>
<path fill-rule="evenodd" clip-rule="evenodd" d="M12.5667 0C10.5969 0 9 1.59686 9 3.5667V9.39764C9 11.3675 10.5969 12.9643 12.5667 12.9643H22.4245C24.5692 12.9814 26.3044 14.7168 26.3211 16.8616V19.1465C26.3211 20.7224 27.5986 21.9999 29.1745 21.9999H32.8964C34.4723 21.9999 35.7498 20.7224 35.7498 19.1465V15.4247C35.7498 13.8488 34.4723 12.5713 32.8964 12.5713H31.4045C29.5685 12.5607 28.2126 11.3309 27.8499 9.63184C27.8549 9.55442 27.8574 9.47633 27.8574 9.39765V3.5667C27.8574 1.59687 26.2606 0 24.2907 0H12.5667Z" fill="url(#paint0_linear_1783_7901)"/>
<defs>
<linearGradient id="paint0_linear_1783_7901" x1="4.4688" y1="-4.70391" x2="22.1085" y2="9.40777" gradientUnits="userSpaceOnUse">
<stop stop-color="white"/>
<stop offset="1" stop-color="#7E7E7E"/>
</linearGradient>
</defs>
</svg>
